<svg width="220" height="220" viewBox="0 0 220 220" fill="none" xmlns="http://www.w3.org/2000/svg">
<g clip-path="url(#clip0_9_438)">
<path d="M110 220C170.751 220 220 170.751 220 110C220 49.2487 170.751 0 110 0C49.2487 0 0 49.2487 0 110C0 170.751 49.2487 220 110 220Z" fill="#FF007A"/>
<path d="M84.2944 39.6466C82.335 39.3441 82.2525 39.3029 83.1738 39.1654C84.9407 38.8904 89.1207 39.2685 92.0013 39.9491C98.7182 41.551 104.83 45.6416 111.361 52.9085L113.094 54.8335L115.569 54.4416C126.019 52.7573 136.654 54.0979 145.544 58.2023C147.991 59.3298 151.848 61.5779 152.329 62.1623C152.488 62.341 152.769 63.5304 152.955 64.7954C153.615 69.1748 153.285 72.5298 151.951 75.0391C151.223 76.4004 151.181 76.8266 151.669 77.9954C151.901 78.4781 152.264 78.8861 152.716 79.173C153.168 79.4598 153.691 79.614 154.227 79.6179C156.441 79.6179 158.819 76.0429 159.919 71.0723L160.359 69.0991L161.226 70.0823C165.983 75.4723 169.716 82.8216 170.356 88.0466L170.528 89.4148L169.723 88.1773C168.348 86.046 166.973 84.5885 165.199 83.4129C162.009 81.3023 158.634 80.5873 149.696 80.1129C141.625 79.6866 137.053 78.9991 132.529 77.521C124.823 75.0116 120.938 71.6635 111.781 59.6529C107.718 54.3179 105.201 51.3685 102.706 48.9966C97.02 43.5929 91.4375 40.7604 84.2944 39.6466Z" fill="white"/>
<path d="M154.151 51.5606C154.357 47.9856 154.839 45.6275 155.815 43.4756C156.2 42.6231 156.564 41.9219 156.619 41.9219C156.558 42.4045 156.431 42.8764 156.241 43.3244C155.533 45.4144 155.416 48.2744 155.904 51.595C156.523 55.8163 156.88 56.4212 161.335 60.9794C163.432 63.1175 165.866 65.8125 166.746 66.9744L168.348 69.0781L166.746 67.5725C164.787 65.7369 160.277 62.1413 159.28 61.6325C158.613 61.2888 158.51 61.2956 158.097 61.7013C157.719 62.0863 157.637 62.65 157.589 65.3381C157.506 69.5181 156.935 72.2131 155.554 74.8944C154.811 76.3381 154.694 76.0356 155.368 74.3925C155.87 73.1688 155.918 72.6325 155.918 68.5831C155.918 60.4431 154.949 58.4906 149.277 55.1356C147.57 54.1453 145.817 53.2368 144.024 52.4131C143.138 52.0578 142.279 51.6396 141.453 51.1619C141.611 51.0037 147.139 52.6125 149.359 53.4719C152.673 54.7437 153.216 54.9088 153.622 54.7506C153.89 54.6475 154.02 53.8637 154.151 51.5606ZM88.103 65.4825C84.1223 60.0031 81.6611 51.595 82.1905 45.3113L82.3555 43.3656L83.263 43.5306C84.968 43.84 87.9036 44.9331 89.2786 45.7719C93.0461 48.0612 94.6823 51.0794 96.3392 58.8206C96.8273 61.0894 97.4667 63.6537 97.7624 64.5269C98.2299 65.9225 100.017 69.1881 101.475 71.3125C102.52 72.8388 101.819 73.5606 99.5086 73.3544C95.9748 73.0312 91.1898 69.7312 88.103 65.4825ZM149.325 106.286C130.714 98.7919 124.162 92.2881 124.162 81.3156C124.162 79.7 124.217 78.38 124.279 78.38C124.348 78.38 125.07 78.9094 125.881 79.5625C129.655 82.5875 133.884 83.88 145.578 85.585C152.46 86.5956 156.337 87.4069 159.912 88.5894C171.27 92.3569 178.296 100.002 179.974 110.411C180.455 113.436 180.173 119.108 179.382 122.098C178.764 124.463 176.859 128.719 176.357 128.884C176.22 128.925 176.082 128.396 176.041 127.66C175.849 123.755 173.875 119.946 170.555 117.093C166.78 113.855 161.714 111.27 149.318 106.286H149.325ZM136.262 109.393C136.042 108.065 135.742 106.752 135.362 105.461L134.88 104.044L135.767 105.034C136.984 106.409 137.954 108.156 138.765 110.493C139.39 112.274 139.459 112.803 139.452 115.698C139.452 118.544 139.377 119.135 138.799 120.744C137.996 123.103 136.652 125.241 134.874 126.986C131.47 130.451 127.105 132.363 120.794 133.16C119.694 133.298 116.504 133.531 113.692 133.676C106.61 134.047 101.956 134.803 97.7692 136.274C97.3917 136.444 96.9861 136.541 96.573 136.563C96.408 136.391 99.2542 134.693 101.612 133.559C104.933 131.957 108.233 131.084 115.637 129.853C119.295 129.241 123.076 128.506 124.032 128.21C133.093 125.433 137.747 118.269 136.255 109.393H136.262Z" fill="white"/>
<path d="M144.787 124.545C142.312 119.231 141.749 114.095 143.103 109.31C143.247 108.802 143.481 108.382 143.619 108.382C144.084 108.551 144.522 108.787 144.918 109.084C146.059 109.854 148.342 111.146 154.426 114.46C162.023 118.605 166.354 121.816 169.304 125.474C171.882 128.684 173.477 132.342 174.247 136.797C174.68 139.32 174.426 145.39 173.779 147.934C171.737 155.95 166.987 162.248 160.222 165.919C159.583 166.289 158.922 166.617 158.242 166.902C158.146 166.902 158.503 165.988 159.046 164.86C161.315 160.103 161.583 155.469 159.857 150.313C158.806 147.157 156.654 143.3 152.316 136.797C147.269 129.234 146.032 127.213 144.787 124.545ZM74.8894 153.221C81.7987 147.391 90.3856 143.252 98.2162 141.98C101.585 141.43 107.209 141.65 110.33 142.448C115.335 143.727 119.817 146.6 122.148 150.017C124.417 153.359 125.4 156.274 126.411 162.75C126.823 165.307 127.256 167.872 127.387 168.456C128.143 171.811 129.635 174.499 131.477 175.847C134.399 177.985 139.439 178.115 144.389 176.19C144.906 175.953 145.451 175.782 146.011 175.682C146.19 175.86 143.701 177.531 141.941 178.411C139.864 179.522 137.538 180.086 135.183 180.047C130.646 180.047 126.878 177.744 123.736 173.035C123.117 172.107 121.729 169.336 120.642 166.868C117.329 159.305 115.692 156.995 111.842 154.472C108.481 152.272 104.156 151.88 100.904 153.475C96.6281 155.572 95.4387 161.038 98.4981 164.496C99.715 165.871 101.984 167.06 103.84 167.287C104.65 167.395 105.473 167.327 106.254 167.089C107.036 166.85 107.757 166.447 108.369 165.906C108.981 165.365 109.469 164.699 109.802 163.953C110.134 163.207 110.303 162.398 110.296 161.581C110.296 159.299 109.416 158.006 107.216 157.009C104.211 155.655 100.98 157.236 100.994 160.062C101.001 161.265 101.523 162.021 102.733 162.571C103.51 162.915 103.524 162.949 102.891 162.819C100.134 162.241 99.4881 158.92 101.709 156.714C104.369 154.06 109.876 155.229 111.767 158.845C112.564 160.364 112.654 163.396 111.959 165.225C110.412 169.315 105.889 171.46 101.303 170.292C98.1819 169.494 96.91 168.635 93.1494 164.757C86.6112 158.02 84.0744 156.714 74.6419 155.242L72.8337 154.96L74.8962 153.221H74.8894Z" fill="white"/>
<path fill-rule="evenodd" clip-rule="evenodd" d="M42.5974 23.0286L43.2574 23.833C68.7499 55.0455 81.9224 71.243 82.7612 72.398C84.1362 74.3092 83.6205 76.0211 81.2555 77.3686C79.9424 78.118 77.2337 78.8742 75.8862 78.8742C74.353 78.8742 72.6274 78.1386 71.3693 76.9492C70.4824 76.1036 66.9005 70.7549 58.6299 57.9193C54.7569 51.8527 50.8334 45.8185 46.8599 39.8174C46.523 39.5011 46.5299 39.508 57.9837 60.0024C65.1749 72.8724 67.6087 77.4168 67.6087 78.0286C67.6087 79.2661 67.2649 79.9124 65.7387 81.6174C63.1949 84.4567 62.0605 87.6467 61.2355 94.2467C60.3143 101.651 57.7293 106.876 50.5518 115.821C46.358 121.059 45.6705 122.022 44.6049 124.132C43.2712 126.786 42.9068 128.278 42.7555 131.633C42.5974 135.18 42.9068 137.477 43.993 140.866C44.9418 143.836 45.9318 145.802 48.4618 149.721C50.648 153.11 51.9062 155.627 51.9062 156.61C51.9062 157.394 52.0574 157.394 55.4468 156.63C63.5524 154.802 70.1318 151.577 73.8374 147.631C76.1268 145.19 76.663 143.843 76.6837 140.495C76.6905 138.309 76.6149 137.848 76.0237 136.59C75.0612 134.541 73.308 132.836 69.4443 130.196C64.3774 126.731 62.2187 123.94 61.6205 120.111C61.1255 116.969 61.6962 114.748 64.5012 108.877C67.3955 102.799 68.1174 100.214 68.6055 94.0886C68.9149 90.1286 69.348 88.568 70.4893 87.3167C71.6718 86.0105 72.7443 85.5636 75.6799 85.1649C80.4649 84.5117 83.5105 83.2743 86.013 80.9711C88.1855 78.9636 89.093 77.0317 89.2305 74.1305L89.3405 71.9305L88.1237 70.5142C86.3774 68.4792 71.933 52.543 44.7837 22.6917L44.0549 21.9011L42.5974 23.0355V23.0286ZM54.3812 135.655C54.8608 134.806 55.004 133.807 54.7825 132.857C54.5609 131.908 53.9908 131.076 53.1849 130.526C51.6174 129.481 49.1768 129.976 49.1768 131.337C49.1768 131.75 49.4037 132.052 49.9193 132.32C50.7924 132.767 50.8543 133.276 50.1737 134.3C49.4793 135.345 49.5343 136.267 50.3318 136.892C51.6105 137.896 53.4255 137.339 54.388 135.655H54.3812ZM92.3587 86.3199C90.1105 87.0074 87.9312 89.393 87.2505 91.8886C86.838 93.408 87.0718 96.0824 87.6905 96.9074C88.6874 98.2411 89.6568 98.5918 92.2693 98.5711C97.3843 98.5368 101.826 96.3436 102.348 93.6005C102.774 91.3524 100.815 88.238 98.1268 86.863C96.738 86.1618 93.7887 85.8799 92.3587 86.3199ZM98.3399 90.9949C99.1305 89.8743 98.7799 88.6574 97.4462 87.8461C94.8887 86.2855 91.0249 87.5711 91.0249 89.9911C91.0249 91.1874 93.0393 92.5005 94.8818 92.5005C96.1193 92.5005 97.7968 91.7649 98.3399 90.9949Z" fill="white"/>
</g>
<defs>
<clipPath id="clip0_9_438">
<rect width="220" height="220" fill="white"/>
</clipPath>
</defs>
</svg>
