<svg width="220" height="220" viewBox="0 0 220 220" fill="none" xmlns="http://www.w3.org/2000/svg">
<g clip-path="url(#clip0_9_422)">
<path d="M110 220C131.756 220 153.023 213.549 171.113 201.462C189.202 189.375 203.301 172.195 211.627 152.095C219.952 131.995 222.131 109.878 217.886 88.5401C213.642 67.2022 203.166 47.6021 187.782 32.2183C172.398 16.8345 152.798 6.35804 131.46 2.11367C110.122 -2.13071 88.0048 0.0476608 67.9049 8.3733C47.805 16.6989 30.6254 30.7979 18.5384 48.8873C6.45148 66.9767 8.88887e-05 88.2441 8.88887e-05 110C-0.0355238 124.455 2.7854 138.775 8.30081 152.137C13.8162 165.499 21.9174 177.64 32.1389 187.861C42.3605 198.083 54.5009 206.184 67.8628 211.699C81.2247 217.215 95.5447 220.036 110 220Z" fill="#2775CA"/>
<path d="M140.25 127.42C140.25 111.42 130.63 105.87 111.38 103.58C97.6201 101.75 94.8801 98.0799 94.8801 91.6699C94.8801 85.2599 99.4601 81.1199 108.62 81.1199C116.88 81.1199 121.46 83.8699 123.75 90.7499C123.996 91.4127 124.44 91.984 125.021 92.3865C125.602 92.7889 126.293 93.003 127 92.9999H134.33C134.755 93.0109 135.177 92.9354 135.571 92.7779C135.966 92.6205 136.324 92.3845 136.624 92.0842C136.925 91.7839 137.161 91.4256 137.318 91.0312C137.476 90.6368 137.551 90.2144 137.54 89.7899V89.3399C136.655 84.3722 134.153 79.8362 130.424 76.4365C126.695 73.0369 121.948 70.964 116.92 70.5399V59.5399C116.92 57.7099 115.54 56.3399 113.25 55.8799H106.37C104.54 55.8799 103.17 57.2499 102.71 59.5399V70.1199C88.9201 71.9999 80.2101 81.1199 80.2101 92.5799C80.2101 107.71 89.3801 113.67 108.63 115.96C121.46 118.25 125.63 120.96 125.63 128.33C125.63 135.7 119.22 140.71 110.51 140.71C98.5901 140.71 94.5101 135.71 93.0901 128.79C92.9591 128.017 92.5611 127.314 91.9654 126.804C91.3697 126.295 90.6141 126.01 89.8301 126H82.0001C81.5759 125.99 81.1542 126.067 80.7605 126.225C80.3667 126.383 80.009 126.619 79.709 126.919C79.409 127.219 79.1729 127.576 79.015 127.97C78.857 128.364 78.7805 128.786 78.7901 129.21V129.67C80.6301 141.13 87.9601 149.38 103.09 151.67V162.67C103.09 164.5 104.46 165.88 106.75 166.34H113.63C115.46 166.34 116.84 164.96 117.29 162.67V151.67C131.04 149.38 140.21 139.75 140.21 127.38L140.25 127.42Z" fill="white"/>
<path d="M86.6201 175.54C73.4323 170.703 62.0476 161.933 54.0049 150.417C45.9623 138.9 41.6494 125.192 41.6494 111.145C41.6494 97.0981 45.9623 83.3899 54.0049 71.8733C62.0476 60.3567 73.4323 51.5872 86.6201 46.75C87.5001 46.3694 88.2391 45.7234 88.734 44.9023C89.2288 44.0811 89.4547 43.1259 89.3801 42.17V35.75C89.4418 34.9079 89.1962 34.072 88.6887 33.3972C88.1812 32.7223 87.4463 32.2544 86.6201 32.08C85.9749 32.0127 85.3268 32.1757 84.7901 32.54C68.1042 37.8435 53.5389 48.3192 43.2023 62.4508C32.8657 76.5823 27.2942 93.6366 27.2942 111.145C27.2942 128.653 32.8657 145.708 43.2023 159.839C53.5389 173.971 68.1042 184.447 84.7901 189.75C85.1712 189.971 85.5993 190.099 86.0394 190.123C86.4794 190.147 86.9189 190.067 87.3218 189.888C87.7248 189.71 88.0797 189.438 88.3575 189.096C88.6353 188.754 88.8281 188.351 88.9201 187.92C89.3801 187.46 89.3801 187 89.3801 186.08V179.67C89.3801 178.29 88.0001 176.46 86.6201 175.54ZM135.21 32.54C134.828 32.3187 134.4 32.191 133.959 32.1675C133.518 32.1441 133.078 32.2255 132.675 32.4051C132.272 32.5847 131.917 32.8573 131.64 33.2006C131.363 33.544 131.171 33.9482 131.08 34.38C130.63 34.83 130.63 35.29 130.63 36.21V42.62C130.707 43.5444 130.995 44.4387 131.472 45.2344C131.949 46.0301 132.602 46.7059 133.38 47.21C146.568 52.0472 157.953 60.8167 165.995 72.3333C174.038 83.8499 178.351 97.5581 178.351 111.605C178.351 125.652 174.038 139.36 165.995 150.877C157.953 162.393 146.568 171.163 133.38 176C132.501 176.381 131.763 177.027 131.27 177.849C130.777 178.67 130.553 179.625 130.63 180.58V187C130.568 187.841 130.812 188.676 131.318 189.35C131.823 190.025 132.556 190.494 133.38 190.67C134.025 190.737 134.673 190.574 135.21 190.21C151.89 184.833 166.434 174.305 176.751 160.139C187.068 145.973 192.626 128.9 192.626 111.375C192.626 93.8503 187.068 76.7772 176.751 62.6113C166.434 48.4454 151.89 37.9169 135.21 32.54Z" fill="white"/>
</g>
<defs>
<clipPath id="clip0_9_422">
<rect width="220" height="220" fill="white"/>
</clipPath>
</defs>
</svg>
