<svg width="220" height="220" viewBox="0 0 220 220" fill="none" xmlns="http://www.w3.org/2000/svg">
<g clip-path="url(#clip0_25_238)">
<path d="M0 110C0 49.5248 49.0248 0.5 109.5 0.5C169.975 0.5 219 49.5248 219 110C219 170.475 169.975 219.5 109.5 219.5C49.0248 219.5 0 170.475 0 110Z" fill="white"/>
<path d="M179.389 46.1715L173.348 52.2121C187.762 67.9748 195.755 88.5609 195.755 109.92C195.755 131.28 187.762 151.866 173.348 167.629L179.389 173.669C195.418 156.282 204.318 133.499 204.318 109.85C204.318 86.2008 195.418 63.4179 179.389 46.0305V46.1715Z" fill="#5A5564"/>
<path d="M52.3503 46.7045C68.113 32.2905 88.6991 24.2972 110.059 24.2972C131.418 24.2972 152.004 32.2905 167.767 46.7045L173.807 40.6638C156.42 24.634 133.637 15.7344 109.988 15.7344C86.339 15.7344 63.556 24.634 46.1687 40.6638L52.3503 46.7045Z" fill="#5A5564"/>
<path d="M46.6947 167.693C32.2978 151.934 24.3151 131.36 24.3151 110.015C24.3151 88.6698 32.2978 68.0962 46.6947 52.337L40.6541 46.2964C24.6242 63.6837 15.7246 86.4667 15.7246 110.116C15.7246 133.765 24.6242 156.548 40.6541 173.935L46.6947 167.693Z" fill="#5A5564"/>
<path d="M167.689 173.271C151.926 187.685 131.34 195.678 109.981 195.678C88.6212 195.678 68.035 187.685 52.2723 173.271L46.2317 179.311C63.619 195.341 86.402 204.241 110.051 204.241C133.7 204.241 156.483 195.341 173.87 179.311L167.689 173.271Z" fill="#5A5564"/>
<path d="M148.136 89.8366C146.928 77.2318 136.055 73.0033 122.303 71.7147V54.3579H111.671V71.3925C108.872 71.3925 106.013 71.3925 103.174 71.3925V54.3579H92.6229V71.8355H71.0579V83.212C71.0579 83.212 78.9107 83.0711 78.7899 83.212C80.2058 83.0563 81.6269 83.4562 82.7537 84.3276C83.8806 85.1991 84.6251 86.4739 84.8305 87.8834V135.725C84.8003 136.222 84.6706 136.708 84.4493 137.155C84.2279 137.601 83.9194 137.998 83.5419 138.323C83.1714 138.654 82.7379 138.906 82.2673 139.066C81.7967 139.225 81.2987 139.287 80.8034 139.249C80.9444 139.37 73.0714 139.249 73.0714 139.249L71.0579 151.954H92.4216V169.714H103.053V152.216H111.55V169.633H122.202V152.075C140.163 150.988 152.687 146.558 154.258 129.745C155.526 116.214 149.163 110.173 138.995 107.737C145.177 104.697 149.002 99.0586 148.136 89.8366ZM133.236 127.651C133.236 140.86 110.604 139.35 103.395 139.35V115.912C110.604 115.932 133.236 113.858 133.236 127.651ZM128.303 94.6288C128.303 106.71 109.416 105.24 103.416 105.24V83.9369C109.416 83.9369 128.303 82.0442 128.303 94.6288Z" fill="#F7931A"/>
<path d="M109.98 220C88.2257 219.996 66.9611 213.542 48.8748 201.453C30.7884 189.365 16.6926 172.185 8.36945 152.086C0.0463043 131.987 -2.13036 109.871 2.11465 88.5352C6.35967 67.1991 16.8357 47.6009 32.2183 32.2183C47.6009 16.8357 67.1991 6.35967 88.5352 2.11465C109.871 -2.13036 131.987 0.0463043 152.086 8.36945C172.185 16.6926 189.365 30.7884 201.453 48.8748C213.542 66.9611 219.996 88.2257 220 109.98C220.003 124.429 217.159 138.736 211.631 152.086C206.103 165.435 197.999 177.565 187.782 187.782C177.565 197.999 165.435 206.103 152.086 211.631C138.736 217.159 124.429 220.003 109.98 220ZM109.98 8.57775C89.9376 8.59368 70.3498 14.551 53.6924 25.6967C37.035 36.8423 24.0557 52.6761 16.395 71.1966C8.73436 89.7171 6.73619 110.093 10.6531 129.749C14.57 149.405 24.2261 167.458 38.401 181.628C52.5759 195.797 70.6332 205.446 90.2907 209.355C109.948 213.264 130.323 211.258 148.841 203.59C167.358 195.922 183.187 182.936 194.326 166.274C205.465 149.612 211.414 130.022 211.422 109.98C211.428 96.6587 208.807 83.4671 203.71 71.1594C198.614 58.8517 191.141 47.6693 181.72 38.2517C172.299 28.8341 161.113 21.3659 148.803 16.2742C136.494 11.1825 123.301 8.56717 109.98 8.57775Z" fill="#282138"/>
</g>
<defs>
<clipPath id="clip0_25_238">
<rect width="220" height="220" fill="white"/>
</clipPath>
</defs>
</svg>
