<?xml version="1.0" encoding="UTF-8"?>
<svg version="1.1" xmlns="http://www.w3.org/2000/svg" width="512" height="512">
<path d="M0 0 C0.99422974 0.00215515 1.98845947 0.0043103 3.01281738 0.00653076 C17.48109955 0.05686686 31.66189071 0.35398296 45.875 3.3125 C46.85130371 3.51117676 47.82760742 3.70985352 48.83349609 3.91455078 C85.74307369 11.63658277 120.40325033 25.97421816 150.875 48.3125 C151.7424585 48.94454346 151.7424585 48.94454346 152.62744141 49.58935547 C159.87723416 54.90780842 166.60620794 60.63229802 173.15625 66.78125 C175.45412963 68.92065518 177.79158807 70.9726899 180.1875 73 C183.44952617 75.83245894 186.26563412 78.88522849 189.05078125 82.18359375 C190.28419972 83.62302216 191.55413567 85.03182121 192.85546875 86.41015625 C205.15985595 99.47656379 214.97661398 114.78779807 223.875 130.3125 C224.30409668 131.06080078 224.73319336 131.80910156 225.17529297 132.58007812 C238.21070917 155.62033667 246.88567422 180.84839856 252.1875 206.75 C252.33485596 207.46889404 252.48221191 208.18778809 252.6340332 208.9284668 C255.57592286 224.40656347 256.24883708 239.71880801 256.1875 255.4375 C256.18534485 256.43172974 256.1831897 257.42595947 256.18096924 258.45031738 C256.13063314 272.91859955 255.83351704 287.09939071 252.875 301.3125 C252.57698486 302.77695557 252.57698486 302.77695557 252.27294922 304.27099609 C244.55091723 341.18057369 230.21328184 375.84075033 207.875 406.3125 C207.4536377 406.89080566 207.03227539 407.46911133 206.59814453 408.06494141 C201.27969158 415.31473416 195.55520198 422.04370794 189.40625 428.59375 C187.26684482 430.89162963 185.2148101 433.22908807 183.1875 435.625 C180.35504106 438.88702617 177.30227151 441.70313412 174.00390625 444.48828125 C172.56447784 445.72169972 171.15567879 446.99163567 169.77734375 448.29296875 C156.71093621 460.59735595 141.39970193 470.41411398 125.875 479.3125 C125.12669922 479.74159668 124.37839844 480.17069336 123.60742188 480.61279297 C100.56716333 493.64820917 75.33910144 502.32317422 49.4375 507.625 C48.71860596 507.77235596 47.99971191 507.91971191 47.2590332 508.0715332 C31.78093653 511.01342286 16.46869199 511.68633708 0.75 511.625 C-0.24422974 511.62284485 -1.23845947 511.6206897 -2.26281738 511.61846924 C-16.73109955 511.56813314 -30.91189071 511.27101704 -45.125 508.3125 C-46.10130371 508.11382324 -47.07760742 507.91514648 -48.08349609 507.71044922 C-84.99307369 499.98841723 -119.65325033 485.65078184 -150.125 463.3125 C-150.70330566 462.8911377 -151.28161133 462.46977539 -151.87744141 462.03564453 C-159.12723416 456.71719158 -165.85620794 450.99270198 -172.40625 444.84375 C-174.70412963 442.70434482 -177.04158807 440.6523101 -179.4375 438.625 C-182.69952617 435.79254106 -185.51563412 432.73977151 -188.30078125 429.44140625 C-189.53419972 428.00197784 -190.80413567 426.59317879 -192.10546875 425.21484375 C-204.40985595 412.14843621 -214.22661398 396.83720193 -223.125 381.3125 C-223.76864502 380.19004883 -223.76864502 380.19004883 -224.42529297 379.04492188 C-237.46070917 356.00466333 -246.13567422 330.77660144 -251.4375 304.875 C-251.58485596 304.15610596 -251.73221191 303.43721191 -251.8840332 302.6965332 C-254.82592286 287.21843653 -255.49883708 271.90619199 -255.4375 256.1875 C-255.43534485 255.19327026 -255.4331897 254.19904053 -255.43096924 253.17468262 C-255.38063314 238.70640045 -255.08351704 224.52560929 -252.125 210.3125 C-251.92632324 209.33619629 -251.72764648 208.35989258 -251.52294922 207.35400391 C-243.80091723 170.44442631 -229.46328184 135.78424967 -207.125 105.3125 C-206.49295654 104.4450415 -206.49295654 104.4450415 -205.84814453 103.56005859 C-200.52969158 96.31026584 -194.80520198 89.58129206 -188.65625 83.03125 C-186.51684482 80.73337037 -184.4648101 78.39591193 -182.4375 76 C-179.60504106 72.73797383 -176.55227151 69.92186588 -173.25390625 67.13671875 C-171.81447784 65.90330028 -170.40567879 64.63336433 -169.02734375 63.33203125 C-155.96093621 51.02764405 -140.64970193 41.21088602 -125.125 32.3125 C-124.37669922 31.88340332 -123.62839844 31.45430664 -122.85742188 31.01220703 C-99.81716333 17.97679083 -74.58910144 9.30182578 -48.6875 4 C-47.96860596 3.85264404 -47.24971191 3.70528809 -46.5090332 3.5534668 C-31.03093653 0.61157714 -15.71869199 -0.06133708 0 0 Z " fill="#FEFEFE" transform="translate(256.125,0.6875)"/>
<path d="M0 0 C0.99422974 0.00215515 1.98845947 0.0043103 3.01281738 0.00653076 C17.48109955 0.05686686 31.66189071 0.35398296 45.875 3.3125 C46.85130371 3.51117676 47.82760742 3.70985352 48.83349609 3.91455078 C85.74307369 11.63658277 120.40325033 25.97421816 150.875 48.3125 C151.7424585 48.94454346 151.7424585 48.94454346 152.62744141 49.58935547 C159.87723416 54.90780842 166.60620794 60.63229802 173.15625 66.78125 C175.45412963 68.92065518 177.79158807 70.9726899 180.1875 73 C183.44952617 75.83245894 186.26563412 78.88522849 189.05078125 82.18359375 C190.28419972 83.62302216 191.55413567 85.03182121 192.85546875 86.41015625 C205.15985595 99.47656379 214.97661398 114.78779807 223.875 130.3125 C224.30409668 131.06080078 224.73319336 131.80910156 225.17529297 132.58007812 C238.21070917 155.62033667 246.88567422 180.84839856 252.1875 206.75 C252.33485596 207.46889404 252.48221191 208.18778809 252.6340332 208.9284668 C255.57592286 224.40656347 256.24883708 239.71880801 256.1875 255.4375 C256.18534485 256.43172974 256.1831897 257.42595947 256.18096924 258.45031738 C256.13063314 272.91859955 255.83351704 287.09939071 252.875 301.3125 C252.57698486 302.77695557 252.57698486 302.77695557 252.27294922 304.27099609 C244.55091723 341.18057369 230.21328184 375.84075033 207.875 406.3125 C207.4536377 406.89080566 207.03227539 407.46911133 206.59814453 408.06494141 C201.27969158 415.31473416 195.55520198 422.04370794 189.40625 428.59375 C187.26684482 430.89162963 185.2148101 433.22908807 183.1875 435.625 C180.35504106 438.88702617 177.30227151 441.70313412 174.00390625 444.48828125 C172.56447784 445.72169972 171.15567879 446.99163567 169.77734375 448.29296875 C156.71093621 460.59735595 141.39970193 470.41411398 125.875 479.3125 C125.12669922 479.74159668 124.37839844 480.17069336 123.60742188 480.61279297 C100.56716333 493.64820917 75.33910144 502.32317422 49.4375 507.625 C48.71860596 507.77235596 47.99971191 507.91971191 47.2590332 508.0715332 C31.78093653 511.01342286 16.46869199 511.68633708 0.75 511.625 C-0.24422974 511.62284485 -1.23845947 511.6206897 -2.26281738 511.61846924 C-16.73109955 511.56813314 -30.91189071 511.27101704 -45.125 508.3125 C-46.10130371 508.11382324 -47.07760742 507.91514648 -48.08349609 507.71044922 C-84.99307369 499.98841723 -119.65325033 485.65078184 -150.125 463.3125 C-150.70330566 462.8911377 -151.28161133 462.46977539 -151.87744141 462.03564453 C-159.12723416 456.71719158 -165.85620794 450.99270198 -172.40625 444.84375 C-174.70412963 442.70434482 -177.04158807 440.6523101 -179.4375 438.625 C-182.69952617 435.79254106 -185.51563412 432.73977151 -188.30078125 429.44140625 C-189.53419972 428.00197784 -190.80413567 426.59317879 -192.10546875 425.21484375 C-204.40985595 412.14843621 -214.22661398 396.83720193 -223.125 381.3125 C-223.76864502 380.19004883 -223.76864502 380.19004883 -224.42529297 379.04492188 C-237.46070917 356.00466333 -246.13567422 330.77660144 -251.4375 304.875 C-251.58485596 304.15610596 -251.73221191 303.43721191 -251.8840332 302.6965332 C-254.82592286 287.21843653 -255.49883708 271.90619199 -255.4375 256.1875 C-255.43534485 255.19327026 -255.4331897 254.19904053 -255.43096924 253.17468262 C-255.38063314 238.70640045 -255.08351704 224.52560929 -252.125 210.3125 C-251.92632324 209.33619629 -251.72764648 208.35989258 -251.52294922 207.35400391 C-243.80091723 170.44442631 -229.46328184 135.78424967 -207.125 105.3125 C-206.49295654 104.4450415 -206.49295654 104.4450415 -205.84814453 103.56005859 C-200.52969158 96.31026584 -194.80520198 89.58129206 -188.65625 83.03125 C-186.51684482 80.73337037 -184.4648101 78.39591193 -182.4375 76 C-179.60504106 72.73797383 -176.55227151 69.92186588 -173.25390625 67.13671875 C-171.81447784 65.90330028 -170.40567879 64.63336433 -169.02734375 63.33203125 C-155.96093621 51.02764405 -140.64970193 41.21088602 -125.125 32.3125 C-124.37669922 31.88340332 -123.62839844 31.45430664 -122.85742188 31.01220703 C-99.81716333 17.97679083 -74.58910144 9.30182578 -48.6875 4 C-47.96860596 3.85264404 -47.24971191 3.70528809 -46.5090332 3.5534668 C-31.03093653 0.61157714 -15.71869199 -0.06133708 0 0 Z M-30.125 84.3125 C-31.64359619 84.75456787 -31.64359619 84.75456787 -33.19287109 85.20556641 C-82.65170142 99.88973048 -123.56484518 132.6692233 -148.3671875 178.015625 C-162.31394824 204.33714046 -169.91967461 233.35125017 -169.59155273 263.1340332 C-169.56240004 266.00986037 -169.57105288 268.88385076 -169.58398438 271.75976562 C-169.56731361 287.77353361 -167.57900903 302.89617856 -162.9375 318.25 C-162.48358887 319.76630005 -162.48358887 319.76630005 -162.02050781 321.31323242 C-153.94049706 347.57326735 -140.53948232 371.73299441 -121.58984375 391.6953125 C-119.61856705 393.78842722 -117.7588744 395.9038117 -115.9375 398.125 C-112.67889228 401.95111806 -108.98830888 405.11025967 -105.125 408.3125 C-104.62919434 408.73660156 -104.13338867 409.16070312 -103.62255859 409.59765625 C-81.9239959 428.12821589 -55.96875136 441.64263099 -28.25 448.4375 C-27.26386719 448.68886719 -26.27773437 448.94023437 -25.26171875 449.19921875 C-11.96652659 452.50140562 0.73300046 453.6618616 14.3840332 453.62817383 C17.04094999 453.62502554 19.69673643 453.6485161 22.35351562 453.67382812 C33.82775403 453.71646178 44.63627378 452.59718367 55.875 450.3125 C56.85073975 450.11906006 57.82647949 449.92562012 58.83178711 449.72631836 C84.82616357 444.26773027 109.95314432 432.67104277 130.875 416.3125 C131.82375 415.57386719 132.7725 414.83523438 133.75 414.07421875 C172.57132213 383.02818983 199.09703165 338.16980429 204.69073486 288.39678955 C205.25448733 282.01998166 205.2070117 275.60678457 205.19067383 269.21020508 C205.18752524 266.6455582 205.2110294 264.08208265 205.23632812 261.51757812 C205.40559735 217.26493359 187.80808645 173.02617051 157.33984375 140.9296875 C155.36856705 138.83657278 153.5088744 136.7211883 151.6875 134.5 C148.44121868 130.67435402 144.70576688 127.53634811 140.875 124.3125 C140.04613281 123.57257813 139.21726562 122.83265625 138.36328125 122.0703125 C117.97198317 104.26703133 92.79297772 91.99094623 66.875 84.5625 C66.2370752 84.37598877 65.59915039 84.18947754 64.94189453 83.99731445 C49.35479151 79.76544446 33.88716083 78.7340367 17.8125 78.8125 C16.33023422 78.81564209 16.33023422 78.81564209 14.81802368 78.81884766 C-0.69827882 78.8865408 -15.17340662 79.8414111 -30.125 84.3125 Z " fill="#020101" transform="translate(256.125,0.6875)"/>
<path d="M0 0 C0.99422974 0.00215515 1.98845947 0.0043103 3.01281738 0.00653076 C17.48109955 0.05686686 31.66189071 0.35398296 45.875 3.3125 C46.85130371 3.51117676 47.82760742 3.70985352 48.83349609 3.91455078 C85.74307369 11.63658277 120.40325033 25.97421816 150.875 48.3125 C151.7424585 48.94454346 151.7424585 48.94454346 152.62744141 49.58935547 C159.87723416 54.90780842 166.60620794 60.63229802 173.15625 66.78125 C175.45412963 68.92065518 177.79158807 70.9726899 180.1875 73 C183.44952617 75.83245894 186.26563412 78.88522849 189.05078125 82.18359375 C190.28419972 83.62302216 191.55413567 85.03182121 192.85546875 86.41015625 C205.15985595 99.47656379 214.97661398 114.78779807 223.875 130.3125 C224.30409668 131.06080078 224.73319336 131.80910156 225.17529297 132.58007812 C238.21070917 155.62033667 246.88567422 180.84839856 252.1875 206.75 C252.33485596 207.46889404 252.48221191 208.18778809 252.6340332 208.9284668 C255.57592286 224.40656347 256.24883708 239.71880801 256.1875 255.4375 C256.18534485 256.43172974 256.1831897 257.42595947 256.18096924 258.45031738 C256.13063314 272.91859955 255.83351704 287.09939071 252.875 301.3125 C252.57698486 302.77695557 252.57698486 302.77695557 252.27294922 304.27099609 C244.55091723 341.18057369 230.21328184 375.84075033 207.875 406.3125 C207.4536377 406.89080566 207.03227539 407.46911133 206.59814453 408.06494141 C201.27969158 415.31473416 195.55520198 422.04370794 189.40625 428.59375 C187.26684482 430.89162963 185.2148101 433.22908807 183.1875 435.625 C180.35504106 438.88702617 177.30227151 441.70313412 174.00390625 444.48828125 C172.56447784 445.72169972 171.15567879 446.99163567 169.77734375 448.29296875 C156.71093621 460.59735595 141.39970193 470.41411398 125.875 479.3125 C125.12669922 479.74159668 124.37839844 480.17069336 123.60742188 480.61279297 C100.56716333 493.64820917 75.33910144 502.32317422 49.4375 507.625 C48.71860596 507.77235596 47.99971191 507.91971191 47.2590332 508.0715332 C31.78093653 511.01342286 16.46869199 511.68633708 0.75 511.625 C-0.24422974 511.62284485 -1.23845947 511.6206897 -2.26281738 511.61846924 C-16.73109955 511.56813314 -30.91189071 511.27101704 -45.125 508.3125 C-46.10130371 508.11382324 -47.07760742 507.91514648 -48.08349609 507.71044922 C-78.95437548 501.25180262 -106.81913248 489.90142855 -134.125 474.3125 C-134.125 473.9825 -134.125 473.6525 -134.125 473.3125 C-132.20015274 473.31916183 -132.20015274 473.31916183 -130.23641968 473.32595825 C-117.86225884 473.36733665 -105.4881128 473.39686899 -93.11389732 473.41612434 C-86.75933219 473.42635774 -80.40482483 473.44011759 -74.05029297 473.46337891 C-8.60392521 475.24685861 -8.60392521 475.24685861 56.25 468.5625 C57.1471875 468.3862207 58.044375 468.20994141 58.96875 468.02832031 C67.158335 466.357155 75.0034867 464.10381677 82.875 461.3125 C83.66310059 461.03954102 84.45120117 460.76658203 85.26318359 460.48535156 C115.08435318 450.06722438 139.97402803 433.90662302 162.875 412.3125 C164.050625 411.21808594 164.050625 411.21808594 165.25 410.1015625 C200.41326706 376.3197095 221.36106764 325.37902235 222.984375 277.05664062 C223.33412389 257.13261244 222.73646127 237.71291084 217.875 218.3125 C217.59914063 217.14976562 217.32328125 215.98703125 217.0390625 214.7890625 C212.96618218 198.46273026 206.84760315 183.10878198 198.875 168.3125 C198.55950195 167.71630859 198.24400391 167.12011719 197.91894531 166.50585938 C185.18765045 142.57366365 166.4953265 121.74055838 145.875 104.3125 C140.12279644 99.30186972 134.61537837 94.10616916 129.25 88.6875 C124.61723182 84.01409935 119.91440039 79.54932922 114.875 75.3125 C113.99328125 74.54164062 113.1115625 73.77078125 112.203125 72.9765625 C108.81242941 70.02439539 105.35358889 67.16025227 101.875 64.3125 C100.81539063 63.43682373 100.81539063 63.43682373 99.734375 62.54345703 C80.70378841 46.98677278 59.41515783 37.09903006 35.875 30.3125 C35.17648926 30.10689453 34.47797852 29.90128906 33.75830078 29.68945312 C29.16737115 28.36082355 24.55490807 27.27729136 19.875 26.3125 C18.85237061 26.08820312 18.85237061 26.08820312 17.80908203 25.859375 C-8.26375522 20.36162609 -39.35347152 20.68553553 -65.125 27.3125 C-66.00945801 27.53212402 -66.89391602 27.75174805 -67.80517578 27.97802734 C-93.1347685 34.37951447 -118.01922102 44.71391408 -139.125 60.3125 C-140.17429687 61.07949219 -141.22359375 61.84648438 -142.3046875 62.63671875 C-149.49796821 67.98390808 -156.21364345 73.75841491 -162.69287109 79.94775391 C-164.07199053 81.26198467 -165.46735213 82.55910661 -166.86328125 83.85546875 C-192.75287025 108.62105244 -209.72443523 142.19922484 -219.375 176.3125 C-219.60944824 177.12920166 -219.84389648 177.94590332 -220.08544922 178.78735352 C-224.34859666 194.61425012 -225.65015194 210.35690683 -225.5 226.6875 C-225.49567963 227.58392212 -225.49135925 228.48034424 -225.48690796 229.40393066 C-225.41255602 242.57844917 -224.93283421 255.39861628 -222.125 268.3125 C-221.94275879 269.19760254 -221.76051758 270.08270508 -221.57275391 270.99462891 C-219.38250814 281.51037028 -216.9367716 291.65400447 -212.125 301.3125 C-211.77228027 302.02744629 -211.41956055 302.74239258 -211.05615234 303.47900391 C-197.22771503 331.298963 -180.35729277 357.46301863 -160.375 381.25 C-159.93929687 381.76973389 -159.50359375 382.28946777 -159.0546875 382.82495117 C-156.74623562 385.53781934 -154.35353175 388.09142464 -151.796875 390.56640625 C-149.125 393.3125 -149.125 393.3125 -149.125 395.3125 C-150.32511719 395.52003906 -151.52523437 395.72757812 -152.76171875 395.94140625 C-169.965889 399.063412 -186.8150586 403.65905486 -202.125 412.3125 C-228.07923451 382.61780228 -243.61467041 343.09274283 -251.4375 304.875 C-251.58485596 304.15610596 -251.73221191 303.43721191 -251.8840332 302.6965332 C-254.82592286 287.21843653 -255.49883708 271.90619199 -255.4375 256.1875 C-255.43534485 255.19327026 -255.4331897 254.19904053 -255.43096924 253.17468262 C-255.38063314 238.70640045 -255.08351704 224.52560929 -252.125 210.3125 C-251.92632324 209.33619629 -251.72764648 208.35989258 -251.52294922 207.35400391 C-243.80091723 170.44442631 -229.46328184 135.78424967 -207.125 105.3125 C-206.49295654 104.4450415 -206.49295654 104.4450415 -205.84814453 103.56005859 C-200.52969158 96.31026584 -194.80520198 89.58129206 -188.65625 83.03125 C-186.51684482 80.73337037 -184.4648101 78.39591193 -182.4375 76 C-179.60504106 72.73797383 -176.55227151 69.92186588 -173.25390625 67.13671875 C-171.81447784 65.90330028 -170.40567879 64.63336433 -169.02734375 63.33203125 C-155.96093621 51.02764405 -140.64970193 41.21088602 -125.125 32.3125 C-124.37669922 31.88340332 -123.62839844 31.45430664 -122.85742188 31.01220703 C-99.81716333 17.97679083 -74.58910144 9.30182578 -48.6875 4 C-47.96860596 3.85264404 -47.24971191 3.70528809 -46.5090332 3.5534668 C-31.03093653 0.61157714 -15.71869199 -0.06133708 0 0 Z " fill="#FDFDFD" transform="translate(256.125,0.6875)"/>
<path d="M0 0 C-2.85905262 1.42952631 -4.40601521 0.52938757 -7.4609375 -0.30078125 C-37.9937118 -8.26723276 -73.27957583 -9.9868516 -104 -2 C-104.95358398 -1.76394043 -105.90716797 -1.52788086 -106.88964844 -1.28466797 C-140.04074198 7.05959462 -169.90971303 22.84824884 -195.38012695 45.57080078 C-197.13383233 47.11807904 -198.91691458 48.6271328 -200.703125 50.13671875 C-203.04292664 52.13852391 -205.19982514 54.13928812 -207.1875 56.5 C-209.30769534 59.01212454 -211.44228131 61.48722595 -213.65234375 63.921875 C-232.1036052 84.41674968 -244.04948442 108.52113428 -254 134 C-259.70323584 132.37317535 -264.68013903 129.66802013 -269.875 126.875 C-271.19371094 126.17310547 -271.19371094 126.17310547 -272.5390625 125.45703125 C-274.69494271 124.3087907 -276.84846777 123.15636097 -279 122 C-278.46546927 114.71984207 -276.782975 108.33589092 -274.4375 101.4375 C-274.08107422 100.38191895 -273.72464844 99.32633789 -273.35742188 98.23876953 C-270.28587106 89.38444401 -266.54230319 81.18062091 -262 73 C-261.35634125 71.8023141 -260.71310997 70.60439837 -260.0703125 69.40625 C-236.51736569 26.20504628 -195.84063094 -5.22740865 -149.04052734 -19.53100586 C-138.80891359 -22.53076732 -128.56215997 -24.591712 -118 -26 C-117.04480469 -26.13148437 -116.08960938 -26.26296875 -115.10546875 -26.3984375 C-77.50923511 -30.67204931 -30.76445201 -22.92486192 0 0 Z " fill="#E91C78" transform="translate(332,68)"/>
<path d="M0 0 C5.94 0 11.88 0 18 0 C22.62 13.53 27.24 27.06 32 41 C33.60875 35.699375 35.2175 30.39875 36.875 24.9375 C37.63079346 22.44884399 37.63079346 22.44884399 38.40185547 19.90991211 C38.80701073 18.57406951 39.21212413 17.23821422 39.6171875 15.90234375 C39.82287354 15.22562622 40.02855957 14.54890869 40.24047852 13.85168457 C41.53563408 9.57797994 42.77291639 5.29479264 44 1 C51.26 1 58.52 1 66 1 C58 25.66666667 50 50.33333333 42 75 C35.73 75 29.46 75 23 75 C18.38 61.8 13.76 48.6 9 35 C6.60549838 38.59175244 5.35816188 42.33915313 3.9609375 46.38671875 C3.67521881 47.20372757 3.38950012 48.02073639 3.09512329 48.86250305 C2.18445138 51.46947237 1.2796601 54.07843914 0.375 56.6875 C-0.24180099 58.45651502 -0.85898393 60.22539691 -1.4765625 61.99414062 C-2.98953306 66.3276625 -4.4945347 70.66383587 -6 75 C-12.27 75 -18.54 75 -25 75 C-33.03686059 50.34513517 -41.05813874 25.68564709 -49 1 C-41.74 1 -34.48 1 -27 1 C-24.30055753 8.94407355 -21.6807507 16.88831498 -19.3125 24.9375 C-19.11052002 25.62191162 -18.90854004 26.30632324 -18.70043945 27.01147461 C-17.34992589 31.64814424 -16.14784002 36.30905562 -15 41 C-11.4674268 32.6336414 -8.62974257 24.06215307 -5.8125 15.4375 C-4.92660666 12.72672326 -4.03675874 10.01729126 -3.14453125 7.30859375 C-2.75628174 6.12064209 -2.36803223 4.93269043 -1.96801758 3.70874023 C-1 1 -1 1 0 0 Z " fill="#020202" transform="translate(158,230)"/>
<path d="M0 0 C6.93 0 13.86 0 21 0 C21 9.24 21 18.48 21 28 C29.58 28 38.16 28 47 28 C47 18.76 47 9.52 47 0 C53.93 0 60.86 0 68 0 C68 24.75 68 49.5 68 75 C61.07 75 54.14 75 47 75 C47 65.76 47 56.52 47 47 C38.42 47 29.84 47 21 47 C21 56.24 21 65.48 21 75 C14.07 75 7.14 75 0 75 C0 50.25 0 25.5 0 0 Z " fill="#070707" transform="translate(373,230)"/>
<path d="M0 0 C19.8 0 39.6 0 60 0 C60 5.94 60 11.88 60 18 C47.13 18 34.26 18 21 18 C21 21.63 21 25.26 21 29 C32.88 29 44.76 29 57 29 C57 34.61 57 40.22 57 46 C45.12 46 33.24 46 21 46 C21 49.63 21 53.26 21 57 C34.2 57 47.4 57 61 57 C61 62.94 61 68.88 61 75 C40.87 75 20.74 75 0 75 C0 50.25 0 25.5 0 0 Z " fill="#090909" transform="translate(232,230)"/>
<path d="M0 0 C21.45 0 42.9 0 65 0 C65 5.94 65 11.88 65 18 C57.74 18 50.48 18 43 18 C43 36.48 43 54.96 43 74 C36.07 74 29.14 74 22 74 C22 55.52 22 37.04 22 18 C14.74 18 7.48 18 0 18 C0 12.06 0 6.12 0 0 Z " fill="#050505" transform="translate(299,231)"/>
<path d="M0 0 C3.08367051 1.45762113 6.16687672 2.91622178 9.25 4.375 C10.12269531 4.7875 10.99539062 5.2 11.89453125 5.625 C12.73886719 6.02460938 13.58320312 6.42421875 14.453125 6.8359375 C15.22817383 7.20251465 16.00322266 7.5690918 16.80175781 7.94677734 C18.87881015 8.94193547 20.9400027 9.97000135 23 11 C22.01 19.58 21.02 28.16 20 37 C15.29380821 35.4312694 11.07208633 33.67359292 6.6875 31.4375 C6.05521484 31.12103516 5.42292969 30.80457031 4.77148438 30.47851562 C0.14087865 28.14087865 0.14087865 28.14087865 -1 27 C-1.09912839 25.50914635 -1.13079747 24.01367548 -1.1328125 22.51953125 C-1.13474609 21.1437793 -1.13474609 21.1437793 -1.13671875 19.74023438 C-1.13285156 18.77408203 -1.12898438 17.80792969 -1.125 16.8125 C-1.12886719 15.86568359 -1.13273437 14.91886719 -1.13671875 13.94335938 C-1.1300757 9.18361246 -0.99094167 4.67944679 0 0 Z " fill="#E41C75" transform="translate(49,212)"/>
<path d="M0 0 C2.02504728 0.5861979 4.01774554 1.28228718 6 2 C6.84304687 2.15597656 7.68609375 2.31195313 8.5546875 2.47265625 C12.01009731 3.46921647 13.60043194 4.27521576 16 7 C17.45617688 12.1518703 17.41097443 17.57801317 17.63671875 22.89453125 C17.94513608 29.88943633 19.29672179 36.55596445 20.76904297 43.38476562 C20.94193848 44.21041016 21.11483398 45.03605469 21.29296875 45.88671875 C21.4530542 46.61076904 21.61313965 47.33481934 21.77807617 48.08081055 C22 50 22 50 21 53 C18.07002883 47.80033286 15.16610312 42.58762315 12.29541016 37.35498047 C11.50385884 35.91598612 10.70777343 34.47945921 9.90380859 33.04736328 C4.27341115 22.98292328 0 11.68297389 0 0 Z " fill="#E11E75" transform="translate(52,265)"/>
</svg>
