<svg width="292" height="102" viewBox="0 0 292 102" fill="none" xmlns="http://www.w3.org/2000/svg">
<rect x="3.76221" y="32.2451" width="68.6839" height="30.5262" rx="4" transform="rotate(-28 3.76221 32.2451)" fill="#FF007A"/>
<rect y="74.2183" width="68.6839" height="30.5262" rx="4" transform="rotate(-28 0 74.2183)" fill="#FF007A"/>
<path d="M110.319 29.3114C113.876 29.3114 117.008 29.8721 119.715 30.9934C122.46 32.0761 124.838 33.6807 126.849 35.8074L122.035 42.2454C120.372 40.5054 118.574 39.2101 116.641 38.3594C114.746 37.4701 112.581 37.0254 110.145 37.0254C108.714 37.0254 107.554 37.1801 106.665 37.4894C105.775 37.7987 105.137 38.2241 104.751 38.7654C104.364 39.3067 104.171 39.9254 104.171 40.6214C104.171 41.4334 104.538 42.1294 105.273 42.7094C106.046 43.2507 107.283 43.7147 108.985 44.1014L115.423 45.5514C119.251 46.4407 122.054 47.7361 123.833 49.4374C125.611 51.1387 126.501 53.4007 126.501 56.2234C126.501 58.9301 125.805 61.2307 124.413 63.1254C123.021 64.9814 121.107 66.3927 118.671 67.3594C116.235 68.2874 113.451 68.7514 110.319 68.7514C107.767 68.7514 105.331 68.4807 103.011 67.9394C100.691 67.3594 98.6027 66.5474 96.7467 65.5034C94.8907 64.4594 93.3247 63.2607 92.0487 61.9074L96.8627 55.2374C97.8294 56.3587 99.0087 57.3641 100.401 58.2534C101.831 59.1041 103.378 59.7807 105.041 60.2834C106.742 60.7861 108.463 61.0374 110.203 61.0374C111.556 61.0374 112.677 60.9021 113.567 60.6314C114.495 60.3607 115.171 59.9547 115.597 59.4134C116.022 58.8721 116.235 58.2341 116.235 57.4994C116.235 56.6874 115.945 56.0107 115.365 55.4694C114.785 54.8894 113.683 54.4061 112.059 54.0194L104.983 52.4534C102.817 51.9507 100.884 51.2934 99.1827 50.4814C97.5201 49.6307 96.2054 48.5094 95.2387 47.1174C94.2721 45.6867 93.7887 43.9081 93.7887 41.7814C93.7887 39.3841 94.4461 37.2574 95.7607 35.4014C97.0754 33.5067 98.9701 32.0181 101.445 30.9354C103.919 29.8527 106.877 29.3114 110.319 29.3114ZM131.928 68.1714V39.1714H140.744L141.266 49.1474L140.164 48.0454C140.551 45.9574 141.228 44.2174 142.194 42.8254C143.2 41.4334 144.437 40.3894 145.906 39.6934C147.414 38.9587 149.096 38.5914 150.952 38.5914C152.963 38.5914 154.703 38.9781 156.172 39.7514C157.68 40.5247 158.86 41.6654 159.71 43.1734C160.561 44.6814 160.986 46.5761 160.986 48.8574V68.1714H151.126V51.4674C151.126 49.4567 150.74 48.0647 149.966 47.2914C149.193 46.5181 148.207 46.1314 147.008 46.1314C146.08 46.1314 145.21 46.3634 144.398 46.8274C143.586 47.2527 142.948 47.9487 142.484 48.9154C142.02 49.8821 141.788 51.1774 141.788 52.8014V68.1714H131.928ZM184.077 49.7854C184.077 48.4321 183.69 47.3687 182.917 46.5954C182.182 45.7834 181.177 45.3774 179.901 45.3774C178.625 45.3774 177.523 45.7061 176.595 46.3634C175.706 46.9821 175.087 48.1034 174.739 49.7274L166.387 47.7554C166.928 44.9714 168.359 42.7481 170.679 41.0854C172.999 39.4227 176.266 38.5914 180.481 38.5914C183.304 38.5914 185.701 39.0167 187.673 39.8674C189.684 40.6794 191.211 41.9167 192.255 43.5794C193.338 45.2034 193.879 47.2141 193.879 49.6114V60.2254C193.879 61.7334 194.556 62.4874 195.909 62.4874C196.605 62.4874 197.166 62.4101 197.591 62.2554L197.011 67.8814C195.851 68.4227 194.44 68.6934 192.777 68.6934C191.269 68.6934 189.935 68.4614 188.775 67.9974C187.615 67.4947 186.706 66.7601 186.049 65.7934C185.392 64.7881 185.063 63.5314 185.063 62.0234V61.6754L186.165 61.2694C186.165 62.9321 185.662 64.3241 184.657 65.4454C183.69 66.5667 182.414 67.3981 180.829 67.9394C179.282 68.4807 177.658 68.7514 175.957 68.7514C173.985 68.7514 172.264 68.4421 170.795 67.8234C169.326 67.2047 168.185 66.3154 167.373 65.1554C166.6 63.9567 166.213 62.4874 166.213 60.7474C166.213 58.6594 166.832 56.9387 168.069 55.5854C169.345 54.1934 171.336 53.2267 174.043 52.6854L185.005 50.4234L184.947 55.6434L179.379 56.8034C178.219 57.0354 177.349 57.3834 176.769 57.8474C176.228 58.2727 175.957 58.9301 175.957 59.8194C175.957 60.6701 176.266 61.3081 176.885 61.7334C177.504 62.1587 178.238 62.3714 179.089 62.3714C179.746 62.3714 180.365 62.2747 180.945 62.0814C181.564 61.8881 182.105 61.5981 182.569 61.2114C183.033 60.7861 183.4 60.2641 183.671 59.6454C183.942 59.0267 184.077 58.2921 184.077 57.4414V49.7854ZM201.483 80.3514V39.1714H210.357L210.879 49.6694L209.719 48.4514C209.99 46.5181 210.589 44.8167 211.517 43.3474C212.445 41.8781 213.644 40.7181 215.113 39.8674C216.582 39.0167 218.264 38.5914 220.159 38.5914C222.556 38.5914 224.644 39.1907 226.423 40.3894C228.202 41.5494 229.574 43.2507 230.541 45.4934C231.546 47.6974 232.049 50.3847 232.049 53.5554C232.049 56.7261 231.546 59.4521 230.541 61.7334C229.536 64.0147 228.124 65.7547 226.307 66.9534C224.528 68.1521 222.44 68.7514 220.043 68.7514C217.414 68.7514 215.287 67.9781 213.663 66.4314C212.039 64.8461 210.956 62.8547 210.415 60.4574L211.343 59.0654V80.3514H201.483ZM216.679 61.5014C218.38 61.5014 219.714 60.8827 220.681 59.6454C221.648 58.3694 222.131 56.3781 222.131 53.6714C222.131 50.9647 221.648 48.9927 220.681 47.7554C219.753 46.4794 218.438 45.8414 216.737 45.8414C215.654 45.8414 214.707 46.1507 213.895 46.7694C213.083 47.3494 212.445 48.2194 211.981 49.3794C211.556 50.5394 211.343 51.9701 211.343 53.6714C211.343 55.2954 211.536 56.7067 211.923 57.9054C212.348 59.0654 212.967 59.9547 213.779 60.5734C214.591 61.1921 215.558 61.5014 216.679 61.5014ZM251.19 26.0634C252.776 26.0634 254.168 26.2374 255.366 26.5854C256.565 26.8947 257.454 27.2621 258.034 27.6874L257.048 33.8354C256.623 33.5647 256.14 33.3521 255.598 33.1974C255.057 33.0427 254.38 32.9654 253.568 32.9654C252.215 32.9654 251.094 33.2747 250.204 33.8934C249.354 34.5121 248.928 35.5947 248.928 37.1414V40.9114L249.508 42.5354V68.1714H239.648V36.5034C239.648 34.6474 239.938 33.0621 240.518 31.7474C241.137 30.4327 241.988 29.3501 243.07 28.4994C244.153 27.6487 245.39 27.0301 246.782 26.6434C248.174 26.2567 249.644 26.0634 251.19 26.0634ZM257.744 39.1714V46.1894H235.008V39.1714H257.744ZM290.923 39.1714L280.367 68.1714C279.284 71.2261 278.105 73.6621 276.829 75.4794C275.553 77.2967 274.045 78.6114 272.305 79.4234C270.565 80.2354 268.477 80.6414 266.041 80.6414C264.417 80.6414 262.928 80.4674 261.575 80.1194C260.221 79.7714 259.042 79.2881 258.037 78.6694L260.009 71.9994C260.705 72.5021 261.439 72.8501 262.213 73.0434C262.986 73.2754 263.972 73.3914 265.171 73.3914C266.292 73.3914 267.201 73.1981 267.897 72.8114C268.631 72.4247 269.211 71.6901 269.637 70.6074L270.391 68.8094L267.027 60.9214L258.327 39.1714H269.173L273.639 55.7014L275.031 61.8494L276.655 55.4694L281.121 39.1714H290.923Z" fill="#FF007A"/>
</svg>
