<svg width="119" height="32" viewBox="0 0 119 32" fill="none" xmlns="http://www.w3.org/2000/svg">
<g clip-path="url(#clip0_9_801)">
<path fill-rule="evenodd" clip-rule="evenodd" d="M31.4761 15.8608C31.4761 24.6204 24.4176 31.7215 15.7106 31.7215C7.44986 31.7215 0.673039 25.3297 0 17.194H20.8384V14.5275H0C0.673039 6.39176 7.44986 0 15.7106 0C24.4176 0 31.4761 7.10109 31.4761 15.8608ZM89.9248 28.8479C95.3876 28.8479 98.9702 25.8808 98.9702 21.4121C98.9702 17.2651 96.2744 15.2989 92.195 14.6196L88.5766 14.0119C85.8099 13.5472 83.9651 12.3316 83.9651 9.65042C83.9651 6.93348 86.0227 4.85999 89.9248 4.85999C93.7202 4.85999 95.6714 6.79046 95.8842 9.54318H98.6155C98.4027 5.89674 95.6359 2.64351 89.9603 2.64351C84.3553 2.64351 81.2693 5.82521 81.2693 9.75769C81.2693 13.9404 84.0715 15.8709 87.9027 16.5144L91.5565 17.0864C94.607 17.6226 96.3099 18.8738 96.3099 21.5193C96.3099 24.6295 93.7912 26.6315 89.9603 26.6315C85.9872 26.6315 83.504 24.701 83.2911 21.4121H80.5953C80.8081 25.702 84.0715 28.8479 89.9248 28.8479ZM49.6522 28.3475H39.72V3.17976H49.2975C53.5188 3.17976 56.4632 5.68222 56.4632 9.6862C56.4632 12.5819 54.8313 14.5124 52.2064 15.1559V15.2631C55.3278 15.8709 57.2436 18.0159 57.2436 21.3763C57.2436 25.702 54.0864 28.3475 49.6522 28.3475ZM48.9428 14.2264C51.9581 14.2264 53.8026 12.5819 53.8026 10.0079V9.65042C53.8026 7.07647 51.9581 5.46773 48.9428 5.46773H42.3803V14.2264H48.9428ZM49.262 26.0595C52.5611 26.0595 54.583 24.2363 54.583 21.4478V21.0903C54.583 18.1946 52.5256 16.4429 49.2265 16.4429H42.3803V26.0595H49.262ZM78.7277 28.3475H75.89L73.7614 21.5193H63.8289L61.7006 28.3475H59.0045L67.199 3.17976H70.4271L78.7277 28.3475ZM68.937 5.93248H68.7242L64.5383 19.2671H73.0874L68.937 5.93248ZM102.966 28.3475V3.17976H119V5.50348H105.627V14.1549H117.936V16.4429H105.627V26.0238H119V28.3475H102.966Z" fill="#ADAD9B"/>
</g>
<defs>
<clipPath id="clip0_9_801">
<rect width="119" height="32" fill="white"/>
</clipPath>
</defs>
</svg>
