<svg width="52" height="52" viewBox="0 0 52 52" fill="none" xmlns="http://www.w3.org/2000/svg">
<g filter="url(#filter0_f_9_673)">
<rect x="2" y="2" width="48" height="48" fill="#F7931A" fill-opacity="0.2"/>
<rect x="2.5" y="2.5" width="47" height="47" stroke="#F7931A" stroke-opacity="0.6"/>
<g clip-path="url(#clip0_9_673)">
<path d="M26 44C35.9411 44 44 35.9411 44 26C44 16.0589 35.9411 8 26 8C16.0589 8 8 16.0589 8 26C8 35.9411 16.0589 44 26 44Z" fill="#F7931A"/>
<path d="M34.0876 23.7725C34.4409 21.4145 32.6443 20.1466 30.1895 19.3006L30.986 16.1056L29.042 15.6219L28.2658 18.7325C27.755 18.6042 27.2308 18.485 26.7076 18.3657L27.4895 15.2349L25.5455 14.75L24.749 17.9439C24.326 17.8471 23.9098 17.7526 23.507 17.6514L23.5093 17.6412L20.8273 16.9719L20.3098 19.0486C20.3098 19.0486 21.7531 19.3794 21.7228 19.3996C22.5103 19.5965 22.652 20.1174 22.6284 20.5314L21.7216 24.1707C21.7756 24.1842 21.8454 24.2045 21.9241 24.2349L21.7183 24.1842L20.447 29.2827C20.3503 29.5212 20.1061 29.8801 19.5549 29.744C19.5751 29.7721 18.1419 29.3919 18.1419 29.3919L17.1766 31.6171L19.7079 32.2482C20.1781 32.3664 20.6394 32.4901 21.0928 32.606L20.2884 35.837L22.2313 36.3207L23.0278 33.1257C23.5588 33.2686 24.074 33.4014 24.578 33.5274L23.7838 36.7089L25.7278 37.1926L26.5321 33.9684C29.8486 34.5961 32.3416 34.343 33.3913 31.3437C34.2373 28.9295 33.3496 27.5356 31.6048 26.6277C32.876 26.3352 33.8323 25.4994 34.0876 23.7725V23.7725ZM29.6439 30.0027C29.0443 32.4181 24.9774 31.112 23.6589 30.7846L24.7276 26.504C26.0461 26.8336 30.2728 27.485 29.6439 30.0027ZM30.2458 23.7376C29.6979 25.9347 26.3139 24.8176 25.217 24.5442L26.1845 20.663C27.2814 20.9364 30.8173 21.446 30.2458 23.7376Z" fill="white"/>
</g>
</g>
<defs>
<filter id="filter0_f_9_673" x="0" y="0" width="52" height="52" filterUnits="userSpaceOnUse" color-interpolation-filters="sRGB">
<feFlood flood-opacity="0" result="BackgroundImageFix"/>
<feBlend mode="normal" in="SourceGraphic" in2="BackgroundImageFix" result="shape"/>
<feGaussianBlur stdDeviation="1" result="effect1_foregroundBlur_9_673"/>
</filter>
<clipPath id="clip0_9_673">
<rect width="36" height="36" fill="white" transform="translate(8 8)"/>
</clipPath>
</defs>
</svg>
