<svg width="52" height="52" viewBox="0 0 52 52" fill="none" xmlns="http://www.w3.org/2000/svg">
<g filter="url(#filter0_f_9_638)">
<rect x="2" y="2" width="48" height="48" fill="#F4B731" fill-opacity="0.2"/>
<rect x="2.5" y="2.5" width="47" height="47" stroke="#F4B731" stroke-opacity="0.6"/>
<g clip-path="url(#clip0_9_638)">
<path d="M26 44C35.9411 44 44 35.9411 44 26C44 16.0589 35.9411 8 26 8C16.0589 8 8 16.0589 8 26C8 35.9411 16.0589 44 26 44Z" fill="#F4B731"/>
<path fill-rule="evenodd" clip-rule="evenodd" d="M18.4366 17H25.8076C30.2908 17 33.6894 19.3805 34.9539 22.8433H37.25V24.9369H35.4376C35.4725 25.2676 35.4905 25.6051 35.4905 25.9471V25.9989C35.4905 26.3836 35.468 26.7639 35.423 27.1351H37.25V29.2276H34.91C33.6129 32.6431 30.2412 35 25.8087 35H18.4366V29.2276H15.875V27.1351H18.4366V24.9369H15.875V22.8444H18.4366V17V17ZM20.4965 29.2276V33.1224H25.8065C29.0848 33.1224 31.5193 31.562 32.6521 29.2276H20.4965V29.2276ZM33.2833 27.1351H20.4965V24.9369H33.2878C33.3339 25.2823 33.3586 25.6366 33.3586 25.9989V26.0495C33.3586 26.4196 33.3328 26.7807 33.2833 27.134V27.1351ZM25.8087 18.8731C29.1005 18.8731 31.5429 20.4751 32.669 22.8421H20.4965V18.8743H25.8065L25.8087 18.8731Z" fill="white"/>
</g>
</g>
<defs>
<filter id="filter0_f_9_638" x="0" y="0" width="52" height="52" filterUnits="userSpaceOnUse" color-interpolation-filters="sRGB">
<feFlood flood-opacity="0" result="BackgroundImageFix"/>
<feBlend mode="normal" in="SourceGraphic" in2="BackgroundImageFix" result="shape"/>
<feGaussianBlur stdDeviation="1" result="effect1_foregroundBlur_9_638"/>
</filter>
<clipPath id="clip0_9_638">
<rect width="36" height="36" fill="white" transform="translate(8 8)"/>
</clipPath>
</defs>
</svg>
