<svg width="32" height="32" viewBox="0 0 32 32" fill="none" xmlns="http://www.w3.org/2000/svg">
<circle cx="16" cy="16" r="16" fill="#FF007A"/>
<path d="M7 13.5C7 13.058 7.21071 12.634 7.58579 12.3215C7.96086 12.0089 8.46957 11.8333 9 11.8333H23C23.5304 11.8333 24.0391 12.0089 24.4142 12.3215C24.7893 12.634 25 13.058 25 13.5M7 15.1667H10C10.8 15.1667 11.6 15.4167 12.1 15.9167L13.2 16.6667C14.8 18 17.3 18 18.9 16.6667L20 15.9167C20.5 15.5 21.3 15.1667 22.1 15.1667H25M9 8.5H23C24.1046 8.5 25 9.24619 25 10.1667V21.8333C25 22.7538 24.1046 23.5 23 23.5H9C7.89543 23.5 7 22.7538 7 21.8333V10.1667C7 9.24619 7.89543 8.5 9 8.5Z" stroke="white" stroke-width="2" stroke-linecap="round" stroke-linejoin="round"/>
</svg>
