<svg width="52" height="52" viewBox="0 0 52 52" fill="none" xmlns="http://www.w3.org/2000/svg">
<g filter="url(#filter0_f_9_702)">
<rect x="2" y="2" width="48" height="48" fill="#627EEA" fill-opacity="0.2"/>
<rect x="2.5" y="2.5" width="47" height="47" stroke="#627EEA" stroke-opacity="0.6"/>
<g clip-path="url(#clip0_9_702)">
<path d="M26 44C35.9411 44 44 35.9411 44 26C44 16.0589 35.9411 8 26 8C16.0589 8 8 16.0589 8 26C8 35.9411 16.0589 44 26 44Z" fill="#627EEA"/>
<path d="M26.5603 12.5V22.4787L34.9944 26.2475L26.5603 12.5Z" fill="white" fill-opacity="0.602"/>
<path d="M26.5602 12.5L18.125 26.2475L26.5602 22.4787V12.5Z" fill="white"/>
<path d="M26.5603 32.7141V39.4945L35.0001 27.8181L26.5603 32.7141Z" fill="white" fill-opacity="0.602"/>
<path d="M26.5602 39.4945V32.713L18.125 27.8181L26.5602 39.4945Z" fill="white"/>
<path d="M26.5603 31.1446L34.9944 26.2475L26.5603 22.481V31.1446Z" fill="white" fill-opacity="0.2"/>
<path d="M18.125 26.2475L26.5602 31.1446V22.481L18.125 26.2475Z" fill="white" fill-opacity="0.602"/>
</g>
</g>
<defs>
<filter id="filter0_f_9_702" x="0" y="0" width="52" height="52" filterUnits="userSpaceOnUse" color-interpolation-filters="sRGB">
<feFlood flood-opacity="0" result="BackgroundImageFix"/>
<feBlend mode="normal" in="SourceGraphic" in2="BackgroundImageFix" result="shape"/>
<feGaussianBlur stdDeviation="1" result="effect1_foregroundBlur_9_702"/>
</filter>
<clipPath id="clip0_9_702">
<rect width="36" height="36" fill="white" transform="translate(8 8)"/>
</clipPath>
</defs>
</svg>
