<svg width="139" height="42" viewBox="0 0 139 42" fill="none" xmlns="http://www.w3.org/2000/svg">
<path d="M13.579 8.82007C14.7579 8.96993 15.6515 9.56586 16.6603 10.1588C16.9346 10.3147 16.9346 10.3147 17.2144 10.4738C17.3881 10.5751 17.5618 10.6763 17.7408 10.7806C17.8993 10.8728 18.0579 10.9649 18.2212 11.0598C18.5927 11.3401 18.5927 11.3401 18.8016 11.9701C18.0626 12.3997 17.3235 12.829 16.5843 13.2582C16.3337 13.4038 16.0831 13.5494 15.8325 13.695C15.5892 13.8365 15.3457 13.9778 15.1021 14.1188C14.7449 14.3267 14.3892 14.5372 14.0336 14.7478C13.37 15.1201 13.37 15.1201 12.7808 15.3697C12.2651 15.5929 11.8919 15.7755 11.4899 16.1701C11.2195 16.9944 11.2575 17.7898 11.281 18.6507C11.2798 19.0465 11.2785 19.4424 11.2764 19.8382C11.2752 20.2928 11.2781 20.7473 11.2811 21.2019C11.2852 22.4366 11.2566 23.6704 11.2279 24.9048C11.2226 25.1332 11.2174 25.3616 11.2119 25.5969C11.2011 26.06 11.1902 26.5231 11.1793 26.9862C11.1537 28.1071 11.132 29.2281 11.1104 30.3492C11.1065 30.5504 11.1026 30.7515 11.0986 30.9588C11.0897 31.4192 11.0809 31.8797 11.0721 32.3401C10.3046 32.0992 9.61732 31.841 8.9267 31.4271C8.77145 31.3346 8.6162 31.2422 8.45625 31.1469C8.29831 31.0512 8.14037 30.9555 7.97764 30.8569C7.73467 30.7122 7.73467 30.7122 7.48679 30.5645C6.30169 29.8547 6.30169 29.8547 6.05831 29.6101C6.02737 29.1058 6.00993 28.6074 6.00144 28.1026C5.99805 27.9448 5.99467 27.7871 5.99118 27.6245C5.96186 26.1668 5.94557 24.7089 5.93291 23.251C5.92435 22.2711 5.91174 21.2916 5.88923 20.3119C5.86756 19.3653 5.85616 18.419 5.85197 17.4722C5.84864 17.1115 5.84169 16.7509 5.83104 16.3904C5.75177 13.5716 5.75177 13.5716 6.49067 12.7484C7.03216 12.4164 7.55232 12.1876 8.14738 11.9701C8.38276 11.8349 8.61814 11.6997 8.86065 11.5605C9.06718 11.4452 9.27371 11.33 9.4865 11.2113C9.71446 11.0836 9.94242 10.956 10.1773 10.8245C10.4079 10.6958 10.6386 10.5671 10.8762 10.4344C11.3445 10.1731 11.8127 9.91142 12.2806 9.6494C12.5872 9.47833 12.5872 9.47833 12.9001 9.3038C13.3486 9.0696 13.3486 9.0696 13.579 8.82007Z" fill="#ADAD9B"/>
<path d="M21.1086 5.62007C21.4581 5.83986 21.8033 6.06687 22.1441 6.30011C22.508 6.51129 22.8731 6.72042 23.2392 6.92765C23.6318 7.15976 24.0241 7.39248 24.416 7.62574C25.853 8.47549 27.2922 9.32053 28.741 10.1498C28.9386 10.2629 28.9386 10.2629 29.1401 10.3783C29.6595 10.6755 30.179 10.9724 30.699 11.2685C31.0601 11.4741 31.4208 11.6803 31.7816 11.8864C31.9882 12.0041 32.1947 12.1217 32.4076 12.243C32.6055 12.3608 32.8034 12.4787 33.0073 12.6001C33.2367 12.7143 33.4661 12.8285 33.7025 12.9461C34.3076 13.4816 34.346 13.5417 34.4063 14.2966C34.4075 14.6436 34.4018 14.9907 34.3905 15.3375C34.3885 15.6131 34.3885 15.6131 34.3866 15.8944C34.381 16.4809 34.3665 17.0669 34.3521 17.6532C34.3476 18.0488 34.3437 18.4443 34.3403 18.8398C34.3054 21.7052 34.3054 21.7052 34.0518 22.4701C33.6353 22.773 33.6353 22.773 33.0938 23.0829C32.8993 23.1945 32.7049 23.3062 32.5046 23.4213C32.1976 23.5936 32.1976 23.5936 31.8844 23.7695C31.6813 23.8868 31.4783 24.0042 31.2691 24.1251C29.7477 24.9901 29.7477 24.9901 29.038 24.9901C29.038 22.0102 29.038 19.0303 29.038 15.9601C28.6244 15.8215 28.2108 15.6829 27.7846 15.5401C27.48 15.387 27.1801 15.224 26.8861 15.0512C26.7191 14.954 26.552 14.8567 26.3798 14.7565C26.2014 14.6513 26.023 14.546 25.8392 14.4376C25.4481 14.2099 25.057 13.9824 24.6657 13.7551C24.46 13.6355 24.2543 13.5158 24.0424 13.3925C22.932 12.7512 21.8132 12.1248 20.6948 11.4976C18.8741 10.4752 17.0574 9.44656 15.2502 8.40011C15.6099 7.31524 16.6884 6.9522 17.6396 6.40511C17.8403 6.27896 18.0411 6.15281 18.2479 6.02284C19.3023 5.41962 19.9698 5.05961 21.1086 5.62007Z" fill="#ADAD9B"/>
<path d="M34.0518 23.73C34.1771 25.2209 34.2479 26.7051 34.211 28.2015C34.2055 28.4468 34.2 28.6921 34.1944 28.9449C34.0131 29.7907 33.6997 30.0884 33.0334 30.6206C32.6379 30.7807 32.2414 30.9391 31.8396 31.0826C30.7467 31.5326 29.7514 32.195 28.7378 32.7994C28.2651 33.0731 27.7921 33.3463 27.3187 33.6188C25.7965 34.4999 24.2848 35.3982 22.777 36.3039C22.5138 36.4614 22.5138 36.4614 22.2453 36.622C22.0182 36.7585 22.0182 36.7585 21.7865 36.8978C21.6288 36.9876 21.471 37.0775 21.3085 37.17C21.1082 37.2969 20.9078 37.4239 20.7014 37.5547C20.0551 37.8 20.0551 37.8 19.44 37.6083C19.2304 37.4845 19.0208 37.3607 18.8049 37.2331C18.5752 37.1004 18.3455 36.9676 18.1088 36.8308C17.8697 36.6858 17.6306 36.5407 17.3915 36.3956C17.1494 36.2542 16.907 36.1132 16.6644 35.9727C14.9231 34.9511 14.9231 34.9511 14.4146 34.44C14.3672 33.8525 14.3672 33.8525 14.3738 33.1127C14.3751 32.8488 14.3765 32.5848 14.3779 32.3129C14.3814 32.036 14.3849 31.7591 14.3885 31.4737C14.3906 31.1924 14.3925 30.911 14.3942 30.6296C14.3991 29.9397 14.406 29.2499 14.4146 28.56C15.1548 28.839 15.8146 29.17 16.4914 29.5796C16.6822 29.6929 16.873 29.8062 17.0696 29.9229C17.4687 30.1616 17.8669 30.4016 18.2643 30.6432C18.4548 30.7556 18.6453 30.8681 18.8416 30.984C19.0144 31.088 19.1872 31.192 19.3652 31.2992C19.9375 31.5381 20.1152 31.5221 20.6818 31.29C21.0361 31.113 21.3849 30.9249 21.7296 30.7297C21.9369 30.6128 22.1441 30.4959 22.3577 30.3754C22.6915 30.1849 22.6915 30.1849 23.032 29.9906C23.2627 29.8598 23.4935 29.729 23.7312 29.5943C25.9577 28.3283 28.1658 27.0309 30.3727 25.7307C31.1403 25.2794 31.9097 24.8313 32.6809 24.3862C32.9047 24.2568 33.1284 24.1274 33.359 23.9941C33.8429 23.73 33.8429 23.73 34.0518 23.73Z" fill="#ADAD9B"/>
<path d="M114.076 11.025C114.21 11.129 114.343 11.2329 114.481 11.34C114.55 11.2014 114.619 11.0628 114.69 10.92C115.517 10.92 116.344 10.92 117.197 10.92C117.207 11.9322 117.215 12.9443 117.22 13.9565C117.222 14.3 117.225 14.6436 117.228 14.9872C117.275 19.5227 117.275 19.5227 116.309 20.7638C115.178 21.6424 114.243 21.9431 112.823 21.9188C112.681 21.9212 112.54 21.9237 112.394 21.9262C111.18 21.9191 110.136 21.672 109.258 20.79C109.314 19.9813 109.793 19.495 110.303 18.9C110.477 18.991 110.477 18.991 110.655 19.0838C111.771 19.6296 112.665 19.977 113.906 19.5957C114.395 19.2271 114.509 18.8462 114.69 18.27C114.522 18.374 114.354 18.4779 114.181 18.585C113.147 19.0224 112.218 19.1193 111.14 18.7622C110.131 18.257 109.727 17.6043 109.258 16.59C108.8 15.0497 108.933 13.3982 109.676 11.97C110.815 10.6558 112.513 10.2555 114.076 11.025ZM112.105 12.9807C111.493 13.8089 111.45 14.5295 111.556 15.54C111.84 16.2317 112.044 16.5053 112.679 16.8919C113.372 17.0411 113.667 16.9518 114.272 16.59C114.817 15.7087 114.801 14.8678 114.69 13.86C114.513 13.2182 114.513 13.2182 114.063 12.81C113.219 12.5479 112.824 12.4285 112.105 12.9807Z" fill="#ADAD9B"/>
<path d="M83.7717 7.97998C89.0361 7.97998 89.0361 7.97998 90.5611 8.93811C91.0643 9.76009 91.127 10.5957 91.0834 11.55C90.9304 12.1001 90.7304 12.5138 90.4567 13.02C90.7087 13.3188 90.7087 13.3188 90.9659 13.6237C91.6987 14.4926 91.8081 15.115 91.795 16.2512C91.6775 17.0112 91.3726 17.4159 90.8737 17.9812C88.9348 19.3238 85.6694 18.69 83.7717 18.69C83.7717 15.1557 83.7717 11.6214 83.7717 7.97998ZM86.0696 9.86998C86.0696 10.6323 86.0696 11.3946 86.0696 12.18C86.4014 12.1886 86.7332 12.1973 87.075 12.2062C87.2616 12.2111 87.4482 12.216 87.6405 12.221C88.2118 12.2184 88.2118 12.2184 88.7854 11.76C88.8675 11.1135 88.9209 10.6907 88.5349 10.1472C88.0274 9.77323 87.6971 9.80624 87.075 9.83061C86.7432 9.8436 86.4115 9.85659 86.0696 9.86998ZM86.0696 14.28C86.0696 15.1116 86.0696 15.9432 86.0696 16.8C87.466 16.8688 87.466 16.8688 88.8115 16.5769C89.2787 16.1734 89.2787 16.1734 89.2946 15.4219C89.2761 14.6875 89.2761 14.6875 88.7854 14.28C88.1319 14.2288 88.1319 14.2288 87.4014 14.2537C87.029 14.2594 87.029 14.2594 86.649 14.2652C86.3622 14.2725 86.3622 14.2725 86.0696 14.28Z" fill="#ADAD9B"/>
<path d="M90.0389 26.8801C90.584 27.1115 91.0083 27.3827 91.5012 27.7201C91.665 27.5815 91.8287 27.4429 91.9974 27.3001C92.8911 26.704 93.8076 26.711 94.8437 26.8801C95.5195 27.2197 95.9301 27.4881 96.3714 28.1007C96.8123 29.5109 96.7493 30.9704 96.737 32.432C96.736 32.6457 96.7351 32.8594 96.7341 33.0796C96.7317 33.6031 96.7279 34.1266 96.7239 34.6501C95.8966 34.6501 95.0694 34.6501 94.217 34.6501C94.2068 34.2784 94.1966 33.9067 94.186 33.5238C94.1703 33.0373 94.1546 32.5509 94.1387 32.0645C94.1322 31.8193 94.1258 31.5742 94.1191 31.3217C94.107 30.9694 94.107 30.9694 94.0946 30.61C94.088 30.3934 94.0815 30.1767 94.0747 29.9535C94.0443 29.3521 94.0443 29.3521 93.5903 28.7701C92.9759 28.8088 92.9759 28.8088 92.3369 28.9801C91.9005 29.6207 91.8579 30.1953 91.8325 30.9587C91.8245 31.1739 91.8164 31.3891 91.8081 31.6108C91.7984 31.9458 91.7984 31.9458 91.7885 32.2876C91.7804 32.5142 91.7723 32.7407 91.764 32.9742C91.7443 33.5328 91.727 34.0914 91.7101 34.6501C91.0207 34.6501 90.3313 34.6501 89.6211 34.6501C89.6106 34.4869 89.6001 34.3237 89.5893 34.1555C89.541 33.419 89.4897 32.6827 89.4383 31.9463C89.4218 31.6894 89.4054 31.4325 89.3885 31.1679C89.3622 30.8004 89.3622 30.8004 89.3355 30.4255C89.3201 30.1989 89.3048 29.9724 89.289 29.739C89.2531 29.1578 89.2531 29.1578 88.7854 28.7701C88.1504 28.7715 88.1504 28.7715 87.532 28.9801C87.0986 29.6236 87.053 30.1939 87.0277 30.9587C87.0156 31.2815 87.0156 31.2815 87.0032 31.6108C86.9935 31.9458 86.9935 31.9458 86.9836 32.2876C86.9715 32.6274 86.9715 32.6274 86.9591 32.9742C86.9395 33.5328 86.9221 34.0914 86.9053 34.6501C86.1469 34.6501 85.3886 34.6501 84.6073 34.6501C84.6073 32.1553 84.6073 29.6605 84.6073 27.0901C85.3656 27.0901 86.124 27.0901 86.9053 27.0901C86.9742 27.2287 87.0432 27.3673 87.1142 27.5101C87.2478 27.4061 87.3813 27.3022 87.5189 27.1951C88.381 26.7707 89.0947 26.7265 90.0389 26.8801Z" fill="#ADAD9B"/>
<path d="M72.9085 24.1499C73.6668 24.1499 74.4252 24.1499 75.2065 24.1499C75.2065 27.6149 75.2065 31.0799 75.2065 34.6499C74.4481 34.6499 73.6898 34.6499 72.9085 34.6499C72.8396 34.5113 72.7706 34.3727 72.6996 34.2299C72.5703 34.3339 72.4411 34.4378 72.3079 34.5449C71.3835 34.9909 70.5744 35.0031 69.566 34.8599C68.6534 34.4352 68.0977 33.9025 67.6344 32.9945C67.1134 31.5237 67.1488 30.0076 67.6858 28.5599C68.1733 27.7852 68.7109 27.2228 69.566 26.8799C70.0679 26.8167 70.0679 26.8167 70.5975 26.8143C70.7717 26.8108 70.9459 26.8072 71.1254 26.8036C71.6551 26.8799 71.6551 26.8799 72.6996 27.5099C72.7685 26.4011 72.8375 25.2923 72.9085 24.1499ZM70.2188 29.0455C69.6945 29.8361 69.7127 30.5783 69.7749 31.4999C69.9734 32.2144 69.9734 32.2144 70.4016 32.7599C71.0593 32.985 71.4563 33.0254 72.1251 32.8387C72.6479 32.4258 72.756 32.155 72.9085 31.4999C72.9085 30.6336 72.812 29.8674 72.4646 29.0718C71.7706 28.5369 70.9332 28.5429 70.2188 29.0455Z" fill="#ADAD9B"/>
<path d="M43.5571 7.94055C43.8608 7.93669 43.8608 7.93669 44.1707 7.93275C47.3272 7.92636 47.3272 7.92636 48.5578 8.89867C49.3888 9.75439 49.5717 10.3302 49.5762 11.5237C49.5543 12.5272 49.5142 13.2528 48.8842 14.0699C47.6855 14.9297 46.795 15.02 45.3458 14.9624C45.0718 14.9567 45.0718 14.9567 44.7921 14.9509C44.3455 14.9411 43.899 14.9261 43.4526 14.9099C43.4526 16.1573 43.4526 17.4047 43.4526 18.6899C42.6943 18.6899 41.936 18.6899 41.1546 18.6899C41.1495 17.1984 41.1457 15.7069 41.1432 14.2154C41.1421 13.7075 41.1407 13.1997 41.1389 12.6918C41.1364 11.9637 41.1352 11.2355 41.1342 10.5073C41.1332 10.2787 41.1321 10.0501 41.131 9.8146C41.131 9.6044 41.1309 9.3942 41.1309 9.17763C41.1305 8.99156 41.13 8.8055 41.1295 8.6138C41.1937 7.53159 42.7427 7.94107 43.5571 7.94055ZM43.4526 9.86992C43.4526 10.9094 43.4526 11.9489 43.4526 13.0199C44.1506 13.0459 44.1506 13.0459 44.8627 13.0724C45.2554 13.087 45.2554 13.087 45.6559 13.102C46.3858 13.0812 46.3858 13.0812 46.8841 12.636C47.328 12.0203 47.321 11.6649 47.2129 10.9199C46.8411 10.2614 46.6858 10.1133 45.9595 9.86992C45.1231 9.84178 44.2898 9.86087 43.4526 9.86992Z" fill="#ADAD9B"/>
<path d="M44.7061 24.1499C45.3955 24.1499 46.0848 24.1499 46.7951 24.1499C47.3315 25.5774 47.867 27.0053 48.4017 28.4335C48.5839 28.9196 48.7662 29.4056 48.9489 29.8916C49.2109 30.5888 49.472 31.2863 49.7329 31.9839C49.8151 32.2022 49.8974 32.4205 49.9821 32.6455C50.0951 32.9481 50.0951 32.9481 50.2103 33.2569C50.2771 33.435 50.3439 33.6132 50.4127 33.7967C50.5555 34.2299 50.5555 34.2299 50.5555 34.6499C49.7282 34.6499 48.9009 34.6499 48.0486 34.6499C47.7728 34.0262 47.4971 33.4025 47.2129 32.7599C46.1789 32.7599 45.1448 32.7599 44.0793 32.7599C43.8036 33.3836 43.5278 34.0073 43.2437 34.6499C42.4854 34.6499 41.7271 34.6499 40.9457 34.6499C41.0796 33.4347 41.51 32.374 41.9519 31.2456C42.0305 31.0423 42.109 30.839 42.1899 30.6295C42.4399 29.9829 42.6917 29.337 42.9434 28.6912C43.1137 28.2518 43.2838 27.8124 43.4538 27.3729C43.87 26.2981 44.2876 25.2238 44.7061 24.1499ZM45.5417 27.9299C45.3349 28.7615 45.1281 29.5931 44.915 30.4499C45.4665 30.4499 46.018 30.4499 46.5862 30.4499C46.3105 29.6183 46.0347 28.7867 45.7506 27.9299C45.6817 27.9299 45.6127 27.9299 45.5417 27.9299Z" fill="#ADAD9B"/>
<path d="M14.4146 22.8899C15.3352 23.1984 15.8916 23.4074 16.6676 23.9095C16.8474 24.0228 17.0272 24.1361 17.2124 24.2528C17.5859 24.4915 17.9585 24.7316 18.3303 24.9731C18.5098 25.0856 18.6893 25.198 18.8742 25.3139C19.0358 25.4179 19.1974 25.5219 19.3639 25.6291C19.9826 25.8867 20.2589 25.8294 20.8907 25.6199C21.4398 25.3478 21.4398 25.3478 21.9907 25.0022C22.2953 24.8185 22.2953 24.8185 22.606 24.631C22.8155 24.5026 23.025 24.3741 23.2409 24.2418C23.6595 23.9874 24.0784 23.7333 24.4976 23.4797C24.7748 23.3101 24.7748 23.3101 25.0576 23.1372C25.4866 22.8899 25.4866 22.8899 25.6955 22.8899C26.0185 24.3437 26.2735 25.888 25.6955 27.2999C24.3561 28.6825 22.4454 29.5291 20.6818 30.2399C20.5458 30.2988 20.4098 30.3577 20.2697 30.4185C19.5828 30.4694 19.1592 30.1289 18.5764 29.7813C18.3973 29.676 18.3973 29.676 18.2146 29.5686C17.8343 29.3441 17.4562 29.1162 17.0781 28.888C16.8204 28.7351 16.5625 28.5823 16.3045 28.4299C15.6726 28.0563 15.0438 27.6781 14.4146 27.2999C14.4146 25.8446 14.4146 24.3893 14.4146 22.8899Z" fill="#ADAD9B"/>
<path d="M97.1417 26.8799C98.0379 26.8799 98.9341 26.8799 99.8575 26.8799C100.34 28.2659 100.823 29.6519 101.32 31.0799C101.441 30.7767 101.561 30.4735 101.685 30.1611C102.121 29.0674 102.556 27.9736 102.991 26.8799C103.818 26.8799 104.646 26.8799 105.498 26.8799C105.01 28.6457 104.377 30.338 103.71 32.0414C103.526 32.5125 103.345 32.9846 103.164 33.4567C103.046 33.7596 102.928 34.0625 102.809 34.3652C102.756 34.5048 102.703 34.6444 102.648 34.7882C102.134 36.0841 101.504 36.9772 100.265 37.6498C99.5604 37.9094 98.9289 37.8523 98.1863 37.7999C98.1806 37.4937 98.1766 37.1874 98.1732 36.8811C98.1708 36.7106 98.1684 36.54 98.1659 36.3643C98.1863 35.9099 98.1863 35.9099 98.3952 35.4899C98.6365 35.3903 98.8777 35.2906 99.1263 35.188C99.3676 35.0797 99.6089 34.9714 99.8575 34.8599C100.146 33.9886 99.8001 33.465 99.447 32.6672C99.3818 32.5153 99.3166 32.3633 99.2494 32.2068C99.0405 31.7209 98.829 31.2363 98.6171 30.7518C98.4065 30.2663 98.1964 29.7806 97.9871 29.2945C97.8566 28.9919 97.7253 28.6897 97.593 28.3879C97.1417 27.3465 97.1417 27.3465 97.1417 26.8799Z" fill="#ADAD9B"/>
<path d="M129.261 10.8544C129.408 10.8484 129.555 10.8423 129.707 10.836C130.784 10.8229 131.384 11.047 132.238 11.7601C132.882 12.7305 132.888 13.7319 132.931 14.8756C132.94 15.0989 132.948 15.3223 132.957 15.5524C132.966 15.7822 132.974 16.012 132.982 16.2488C132.991 16.4835 133 16.7182 133.01 16.96C133.032 17.5367 133.053 18.1134 133.074 18.6901C132.246 18.6901 131.419 18.6901 130.567 18.6901C130.498 18.5515 130.429 18.4129 130.358 18.2701C130.121 18.3783 129.884 18.4866 129.64 18.5982C128.655 18.9667 127.817 18.9802 126.806 18.6901C126.217 18.3076 125.866 18.0586 125.553 17.4301C125.44 16.4835 125.427 15.7606 125.906 14.9232C126.779 14.1399 127.719 13.9955 128.856 13.8338C129.099 13.7986 129.342 13.7634 129.592 13.7272C129.868 13.689 129.868 13.689 130.149 13.6501C130.149 13.4422 130.149 13.2343 130.149 13.0201C129.553 12.859 129.553 12.859 128.896 12.8101C128.798 12.9137 128.701 13.0174 128.6 13.1242C128.269 13.4401 128.269 13.4401 127.811 13.463C127.648 13.4381 127.484 13.4132 127.316 13.3876C127.152 13.3648 126.988 13.3421 126.819 13.3187C126.389 13.2301 126.389 13.2301 125.971 13.0201C126.033 12.2686 126.126 12.02 126.689 11.4976C127.563 10.8975 128.225 10.8684 129.261 10.8544ZM128.06 15.7501C127.991 16.0273 127.922 16.3045 127.851 16.5901C128.456 17.086 128.456 17.086 129.222 16.9707C129.994 16.8739 129.994 16.8739 130.358 16.1701C130.358 15.8929 130.358 15.6157 130.358 15.3301C129.505 15.3301 128.87 15.4996 128.06 15.7501Z" fill="#ADAD9B"/>
<path d="M96.0972 10.815C96.312 10.8101 96.312 10.8101 96.5313 10.8052C97.5982 10.8134 98.2219 11.0588 99.0218 11.76C99.8089 12.8626 99.7551 14.0356 99.7791 15.3431C99.7898 15.7525 99.8012 16.1618 99.8134 16.5712C99.8171 16.7512 99.8207 16.9312 99.8245 17.1167C99.8585 17.6569 99.9492 18.1622 100.066 18.69C99.6573 18.7013 99.2482 18.7095 98.8391 18.7163C98.6112 18.7211 98.3834 18.726 98.1487 18.731C97.5595 18.69 97.5595 18.69 97.1417 18.27C96.9349 18.4086 96.728 18.5472 96.515 18.69C95.3814 18.9889 94.3853 18.9591 93.3112 18.4817C92.7563 18.1438 92.5572 17.8292 92.3368 17.22C92.2532 16.4358 92.2758 15.9088 92.5588 15.1725C93.4736 14.1046 94.543 14.032 95.8752 13.9256C96.2972 13.9013 96.7194 13.8785 97.1417 13.86C97.1417 13.5135 97.1417 13.167 97.1417 12.81C96.4367 12.7574 96.4367 12.7574 95.6793 12.81C95.5307 12.9724 95.5307 12.9724 95.379 13.1381C95.0526 13.44 95.0526 13.44 94.6666 13.4425C93.9948 13.3604 93.3985 13.2358 92.7546 13.02C92.9347 12.2235 93.0825 11.836 93.7127 11.3039C94.5347 10.8614 95.1878 10.7944 96.0972 10.815ZM94.8437 15.75C94.9229 16.4411 94.9229 16.4411 95.2615 17.01C96.2983 16.9669 96.2983 16.9669 97.1286 16.4063C97.3973 15.9493 97.3973 15.9493 97.3506 15.33C96.4457 15.2749 95.7043 15.4786 94.8437 15.75Z" fill="#ADAD9B"/>
<path d="M64.8786 27.1556C65.6011 27.6584 65.9425 27.9227 66.2235 28.7699C66.252 29.1297 66.2703 29.4904 66.2822 29.8511C66.2939 30.1678 66.2939 30.1678 66.3059 30.4909C66.3168 30.8215 66.3168 30.8215 66.3279 31.1587C66.3424 31.5935 66.3576 32.0282 66.3736 32.463C66.3799 32.6558 66.3863 32.8487 66.3928 33.0473C66.4271 33.6874 66.4271 33.6874 66.6413 34.6499C65.814 34.6499 64.9867 34.6499 64.1344 34.6499C64.0655 34.5113 63.9965 34.3727 63.9255 34.2299C63.7618 34.3339 63.598 34.4378 63.4293 34.5449C62.4503 34.9522 61.6292 35.0153 60.583 34.8599C59.7251 34.4288 59.2592 34.0745 58.9117 33.1799C58.8872 32.714 58.8872 32.714 58.9378 32.2349C58.9513 32.0768 58.9648 31.9187 58.9786 31.7559C59.179 31.0984 59.4018 30.8588 59.9563 30.4499C60.5573 30.2631 61.1622 30.1706 61.7842 30.0824C61.9498 30.0562 62.1154 30.0299 62.2861 30.0029C62.6928 29.9388 63.1002 29.879 63.5077 29.8199C63.5077 29.5427 63.5077 29.2655 63.5077 28.9799C62.9562 28.9799 62.4046 28.9799 61.8364 28.9799C61.7675 29.1878 61.6985 29.3957 61.6275 29.6099C60.9381 29.4713 60.2487 29.3327 59.5384 29.1899C59.5931 28.3836 59.652 28.0257 60.2304 27.4443C61.5694 26.5992 63.425 26.6172 64.8786 27.1556ZM63.7166 31.2899C63.0272 31.4285 62.3378 31.5671 61.6275 31.7099C61.5586 32.0564 61.4896 32.4029 61.4186 32.7599C61.6604 33.0476 61.6604 33.0476 62.3195 33.0356C63.0902 33.0352 63.0902 33.0352 63.6121 32.6024C63.7155 32.4465 63.8189 32.2906 63.9255 32.1299C63.8565 31.8527 63.7876 31.5755 63.7166 31.2899Z" fill="#ADAD9B"/>
<path d="M75.1151 10.8413C75.3825 10.8397 75.6499 10.8381 75.9254 10.8364C76.957 10.9525 77.6771 11.3803 78.3401 12.1801C78.5452 12.7987 78.5865 13.2446 78.6078 13.8913C78.6195 14.208 78.6195 14.208 78.6314 14.5311C78.6423 14.8616 78.6423 14.8616 78.6535 15.1988C78.6679 15.6336 78.6831 16.0684 78.6992 16.5031C78.7055 16.696 78.7118 16.8888 78.7183 17.0875C78.7577 17.637 78.8476 18.1529 78.9668 18.6901C78.5578 18.7014 78.1486 18.7096 77.7395 18.7163C77.5117 18.7212 77.2838 18.7261 77.0491 18.7311C76.4599 18.6901 76.4599 18.6901 76.0421 18.2701C75.8353 18.4087 75.6285 18.5473 75.4154 18.6901C74.2818 18.989 73.2857 18.9592 72.2116 18.4817C71.6567 18.1439 71.4576 17.8293 71.2373 17.2201C71.1244 16.329 71.1817 15.864 71.5767 15.0545C72.4233 14.0915 73.5377 14.0097 74.7626 13.8338C75.0033 13.7987 75.2441 13.7635 75.4921 13.7272C75.7644 13.689 75.7644 13.689 76.0421 13.6501C76.0421 13.4422 76.0421 13.2343 76.0421 13.0201C75.3413 12.8594 75.3413 12.8594 74.5798 12.8101C74.4807 12.914 74.3816 13.018 74.2795 13.1251C73.953 13.4401 73.953 13.4401 73.5671 13.4508C72.7679 13.3618 72.3414 13.2701 71.6551 12.8101C71.9523 12.063 72.1487 11.6349 72.8343 11.1982C73.6401 10.8785 74.2508 10.8361 75.1151 10.8413ZM73.953 15.7501C73.8107 16.1474 73.8107 16.1474 73.7441 16.5901C73.882 16.7287 74.0199 16.8673 74.162 17.0101C75.2008 16.9769 75.2008 16.9769 76.0291 16.4063C76.2977 15.9493 76.2977 15.9493 76.251 15.3301C75.3979 15.3301 74.7629 15.4996 73.953 15.7501Z" fill="#ADAD9B"/>
<path d="M82.3738 27.4387C83.1598 28.0646 83.6513 29.0316 83.7717 30.0301C83.7717 30.5845 83.7717 31.1389 83.7717 31.7101C82.1171 31.7794 80.4626 31.8487 78.7579 31.9201C79.2745 32.8175 79.2745 32.8175 79.9983 32.852C80.6446 32.8216 80.6446 32.8216 81.0167 32.4057C81.4737 32.1301 81.4737 32.1301 81.9429 32.2285C82.421 32.3905 82.8882 32.5651 83.3538 32.7601C83.3538 33.6001 83.3538 33.6001 83.0013 34.0463C81.9449 34.9074 80.9136 34.951 79.596 34.9265C78.435 34.8039 77.6775 34.3434 76.7994 33.6001C76.1895 32.4683 75.9273 31.1833 76.1278 29.9029C76.5058 28.6634 77.0196 27.7928 78.1573 27.1295C79.5772 26.5977 81.0571 26.6874 82.3738 27.4387ZM79.3324 28.6782C78.8512 29.0261 78.8512 29.0261 78.549 30.0301C79.5141 30.0301 80.4793 30.0301 81.4737 30.0301C81.182 28.9599 81.182 28.9599 80.4553 28.6782C79.8302 28.5188 79.8302 28.5188 79.3324 28.6782Z" fill="#ADAD9B"/>
<path d="M53.8588 10.8675C54.2421 10.8594 54.2421 10.8594 54.6332 10.8511C55.6574 10.9481 56.1751 11.2992 56.8618 12.0487C57.7378 13.324 57.6583 13.8393 57.6583 15.54C56.0037 15.54 54.3492 15.54 52.6445 15.54C53.1303 16.5881 53.1303 16.5881 53.7674 16.8C54.3376 16.8481 54.3376 16.8481 54.825 16.485C55.3603 16.17 55.3603 16.17 56.0001 16.2094C56.5337 16.3577 56.9716 16.5229 57.4494 16.8C57.3831 17.4216 57.2438 17.6367 56.7965 18.0862C55.6867 18.8139 54.5819 19.0156 53.2712 18.9C51.9185 18.609 51.1029 17.9576 50.3465 16.8C49.9556 15.621 49.9125 14.1546 50.2878 12.9634C51.123 11.4095 52.1896 10.8886 53.8588 10.8675ZM52.9709 12.9806C52.604 13.4029 52.604 13.4029 52.6445 13.86C53.5407 13.86 54.4369 13.86 55.3603 13.86C55.2224 13.5135 55.0846 13.167 54.9425 12.81C53.8947 12.5327 53.8947 12.5327 52.9709 12.9806Z" fill="#ADAD9B"/>
<path d="M100.902 10.9201C101.66 10.9201 102.419 10.9201 103.2 10.9201C103.269 11.128 103.338 11.3359 103.409 11.5501C103.521 11.4483 103.634 11.3465 103.75 11.2416C104.663 10.648 105.706 10.7739 106.751 10.9201C107.395 11.1869 107.55 11.3923 108.005 11.9701C108.483 13.4064 108.472 14.771 108.449 16.2751C108.447 16.5079 108.445 16.7407 108.443 16.9805C108.438 17.5504 108.431 18.1202 108.423 18.6901C107.595 18.6901 106.768 18.6901 105.916 18.6901C105.906 18.3184 105.895 17.9467 105.885 17.5638C105.869 17.0773 105.853 16.5909 105.837 16.1044C105.831 15.8593 105.825 15.6142 105.818 15.3616C105.81 15.1268 105.802 14.892 105.793 14.65C105.787 14.4334 105.78 14.2167 105.774 13.9935C105.743 13.3921 105.743 13.3921 105.289 12.8101C104.8 12.8637 104.312 12.9345 103.827 13.0201C103.552 13.5718 103.573 14.0125 103.552 14.6295C103.543 14.865 103.534 15.1005 103.525 15.3432C103.513 15.7135 103.513 15.7135 103.5 16.0913C103.491 16.3398 103.482 16.5883 103.473 16.8444C103.451 17.4596 103.43 18.0748 103.409 18.6901C102.582 18.6901 101.754 18.6901 100.902 18.6901C100.902 16.126 100.902 13.5619 100.902 10.9201Z" fill="#ADAD9B"/>
<path d="M123.046 10.9201C124 11.3663 124.524 11.9587 125.135 12.8101C124.667 13.2808 124.423 13.3523 123.79 13.5057C123.627 13.5482 123.463 13.5907 123.295 13.6345C122.837 13.6501 122.837 13.6501 122.512 13.3466C122.413 13.2389 122.313 13.1311 122.211 13.0201C121.453 12.9675 121.453 12.9675 120.748 13.0201C120.748 13.1587 120.748 13.2973 120.748 13.4401C120.947 13.491 121.146 13.5419 121.351 13.5943C121.613 13.6647 121.875 13.7351 122.145 13.8076C122.405 13.8758 122.664 13.944 122.931 14.0143C123.799 14.3253 124.503 14.6886 124.926 15.5401C125.169 17.2869 125.169 17.2869 124.676 18.0043C123.455 19.055 122.069 19.0179 120.539 18.9001C119.353 18.6381 118.708 17.9779 118.032 17.0101C118.032 16.8715 118.032 16.7329 118.032 16.5901C118.954 16.2813 119.596 16.0927 120.539 16.3801C120.539 16.5187 120.539 16.6573 120.539 16.8001C120.844 16.8171 121.148 16.8293 121.453 16.8395C121.708 16.8504 121.708 16.8504 121.967 16.8616C122.117 16.8413 122.266 16.821 122.419 16.8001C122.557 16.5922 122.695 16.3843 122.837 16.1701C122.608 16.1192 122.379 16.0683 122.143 16.0159C121.839 15.9449 121.535 15.8738 121.231 15.8026C121.005 15.7531 121.005 15.7531 120.775 15.7025C119.816 15.4737 119.175 15.1982 118.45 14.4901C118.13 13.8466 118.193 13.3106 118.241 12.6001C118.534 11.8813 118.765 11.6127 119.428 11.2113C120.608 10.7158 121.789 10.785 123.046 10.9201Z" fill="#ADAD9B"/>
<path d="M57.4494 27.51C58.0631 28.035 58.0631 28.035 58.4939 28.56C58.4939 28.7679 58.4939 28.9758 58.4939 29.19C57.4599 29.5019 57.4599 29.5019 56.4049 29.82C56.267 29.6121 56.1291 29.4042 55.9871 29.19C55.3894 28.9845 55.0706 28.9336 54.4725 29.1507C54.0754 29.3778 54.0754 29.3778 53.898 29.82C53.7953 30.7918 53.7256 31.6335 54.2375 32.4844C54.7326 32.8158 54.7326 32.8158 55.3734 32.7338C56.0186 32.5735 56.0186 32.5735 56.6138 32.13C57.0863 32.2728 57.0863 32.2728 57.593 32.5238C57.7619 32.6055 57.9307 32.6873 58.1047 32.7715C58.2331 32.837 58.3616 32.9025 58.4939 32.97C57.9566 33.9694 57.4853 34.498 56.4049 34.86C54.8731 34.9992 53.4781 35.0082 52.2267 34.02C51.1619 32.7027 51.0467 31.4695 51.1822 29.82C51.377 28.9165 51.6475 28.3067 52.292 27.6413C53.9737 26.6191 55.7253 26.5435 57.4494 27.51Z" fill="#ADAD9B"/>
<path d="M68.7304 8.18994C68.7304 9.09084 68.7304 9.99174 68.7304 10.9199C69.2819 10.9199 69.8334 10.9199 70.4016 10.9199C70.4016 11.5436 70.4016 12.1673 70.4016 12.8099C69.8501 12.8099 69.2986 12.8099 68.7304 12.8099C68.8338 14.5771 68.8338 14.5771 68.9393 16.3799C69.3529 16.4492 69.7666 16.5185 70.1927 16.5899C70.3306 17.2829 70.4685 17.9759 70.6105 18.6899C69.3809 18.8801 68.4364 19.0096 67.268 18.4799C66.2732 17.3762 66.3297 16.3764 66.3802 14.9362C66.3839 14.7315 66.3877 14.5269 66.3916 14.316C66.4014 13.8138 66.4151 13.312 66.4324 12.8099C66.0188 12.8099 65.6051 12.8099 65.179 12.8099C65.179 12.1862 65.179 11.5625 65.179 10.9199C65.5926 10.9199 66.0062 10.9199 66.4324 10.9199C66.4324 10.1576 66.4324 9.39534 66.4324 8.60994C67.2805 8.29272 67.7999 8.18994 68.7304 8.18994Z" fill="#ADAD9B"/>
<path d="M20.8907 12.6001C21.4397 12.8772 21.4397 12.8772 22.0233 13.2268C22.2377 13.3541 22.4521 13.4813 22.6729 13.6124C22.8948 13.7461 23.1167 13.8798 23.3453 14.0176C23.7837 14.2792 24.2222 14.5406 24.6608 14.8018C24.8704 14.927 25.0801 15.0522 25.2961 15.1812C26.1175 15.6658 26.9485 16.1317 27.7846 16.5901C27.5757 17.2201 27.5757 17.2201 27.1057 17.5876C26.4129 17.9042 26.2059 17.8503 25.4866 17.6401C25.0912 17.4312 24.7042 17.2058 24.3246 16.9691C23.9974 16.7697 23.9974 16.7697 23.6636 16.5663C23.207 16.2842 22.7511 16.0009 22.2959 15.7165C22.0778 15.5841 21.8597 15.4517 21.6349 15.3153C21.437 15.1924 21.2391 15.0695 21.0351 14.9428C20.3619 14.6522 20.1128 14.6669 19.4283 14.9101C18.8553 15.2061 18.8553 15.2061 18.2736 15.5811C18.0564 15.714 17.8393 15.847 17.6155 15.9839C17.1614 16.2656 16.7082 16.5489 16.256 16.8337C16.0385 16.9661 15.8211 17.0985 15.597 17.2349C15.4002 17.3578 15.2033 17.4807 15.0005 17.6074C14.2696 17.9102 13.9099 17.8826 13.1611 17.6401C12.665 17.207 12.665 17.207 12.3255 16.8001C12.8298 16.5044 12.8298 16.5044 13.3341 16.2087C13.549 16.0827 13.7639 15.9566 13.9853 15.8268C15.9977 14.6468 15.9977 14.6468 16.6664 14.2579C17.1242 13.9873 17.5781 13.71 18.0284 13.4271C18.248 13.2909 18.4676 13.1547 18.6939 13.0144C18.8904 12.8896 19.0869 12.7648 19.2894 12.6363C19.959 12.3402 20.207 12.3598 20.8907 12.6001Z" fill="#ADAD9B"/>
<path d="M58.7028 8.18994C59.4612 8.18994 60.2195 8.18994 61.0008 8.18994C61.0008 11.6549 61.0008 15.1199 61.0008 18.6899C60.2425 18.6899 59.4841 18.6899 58.7028 18.6899C58.7028 15.2249 58.7028 11.7599 58.7028 8.18994Z" fill="#ADAD9B"/>
<path d="M62.4631 10.9199C63.2215 10.9199 63.9798 10.9199 64.7611 10.9199C64.7611 13.484 64.7611 16.0481 64.7611 18.6899C64.0028 18.6899 63.2444 18.6899 62.4631 18.6899C62.4631 16.1258 62.4631 13.5617 62.4631 10.9199Z" fill="#ADAD9B"/>
<path d="M62.4631 7.97998C63.2215 7.97998 63.9798 7.97998 64.7611 7.97998C64.7611 8.81158 64.7611 9.64318 64.7611 10.5C64.0028 10.5 63.2444 10.5 62.4631 10.5C62.4631 9.66838 62.4631 8.83678 62.4631 7.97998Z" fill="#ADAD9B"/>
</svg>
