<svg width="32" height="32" viewBox="0 0 32 32" fill="none" xmlns="http://www.w3.org/2000/svg">
<circle cx="16" cy="16" r="16" fill="#F7931A"/>
<path d="M11.4166 24.25H20.5833M16 7.75V24.25M7.74998 11.4167H9.58331C11.4166 11.4167 14.1666 10.5 16 9.58333C17.8333 10.5 20.5833 11.4167 22.4166 11.4167H24.25M19.6666 19.6667L22.4166 12.3333L25.1666 19.6667C24.3691 20.2625 23.4066 20.5833 22.4166 20.5833C21.4266 20.5833 20.4641 20.2625 19.6666 19.6667ZM6.83331 19.6667L9.58331 12.3333L12.3333 19.6667C11.5358 20.2625 10.5733 20.5833 9.58331 20.5833C8.59331 20.5833 7.63081 20.2625 6.83331 19.6667Z" stroke="white" stroke-width="2" stroke-linecap="round" stroke-linejoin="round"/>
</svg>
