<svg width="52" height="52" viewBox="0 0 52 52" fill="none" xmlns="http://www.w3.org/2000/svg">
<g filter="url(#filter0_f_9_715)">
<rect x="2" y="2" width="48" height="48" fill="#FF007A" fill-opacity="0.2"/>
<rect x="2.5" y="2.5" width="47" height="47" stroke="#FF007A" stroke-opacity="0.6"/>
<g clip-path="url(#clip0_9_715)">
<path d="M26 43C35.9411 43 44 34.9411 44 25C44 15.0589 35.9411 7 26 7C16.0589 7 8 15.0589 8 25C8 34.9411 16.0589 43 26 43Z" fill="#FF007A"/>
<path d="M21.7936 13.4876C21.473 13.4381 21.4595 13.4313 21.6102 13.4088C21.8994 13.3638 22.5834 13.4257 23.0547 13.5371C24.1539 13.7992 25.154 14.4686 26.2227 15.6577L26.5062 15.9727L26.9112 15.9086C28.6212 15.633 30.3616 15.8523 31.8162 16.524C32.2167 16.7085 32.8479 17.0763 32.9266 17.172C32.9525 17.2012 32.9986 17.3958 33.029 17.6028C33.137 18.3195 33.083 18.8685 32.8647 19.2791C32.7455 19.5018 32.7387 19.5716 32.8186 19.7628C32.8565 19.8418 32.9158 19.9086 32.9898 19.9555C33.0638 20.0025 33.1495 20.0277 33.2371 20.0283C33.5994 20.0283 33.9886 19.4433 34.1686 18.63L34.2406 18.3071L34.3824 18.468C35.1609 19.35 35.7717 20.5526 35.8764 21.4076L35.9045 21.6315L35.7729 21.429C35.5479 21.0802 35.3229 20.8417 35.0326 20.6493C34.5106 20.304 33.9582 20.187 32.4957 20.1093C31.175 20.0396 30.4269 19.9271 29.6866 19.6852C28.4255 19.2746 27.7899 18.7267 26.2914 16.7613C25.6265 15.8883 25.2147 15.4057 24.8064 15.0176C23.876 14.1333 22.9625 13.6698 21.7936 13.4876V13.4876Z" fill="white"/>
<path d="M33.2247 15.4371C33.2584 14.8521 33.3372 14.4662 33.4969 14.1141C33.5599 13.9746 33.6195 13.8599 33.6285 13.8599C33.6185 13.9388 33.5977 14.0161 33.5667 14.0894C33.4508 14.4314 33.4317 14.8994 33.5115 15.4427C33.6128 16.1335 33.6713 16.2325 34.4003 16.9784C34.7434 17.3282 35.1417 17.7692 35.2857 17.9594L35.5478 18.3036L35.2857 18.0572C34.965 17.7569 34.227 17.1685 34.0639 17.0852C33.9548 17.029 33.9379 17.0301 33.8704 17.0965C33.8085 17.1595 33.795 17.2517 33.7872 17.6916C33.7737 18.3756 33.6803 18.8166 33.4542 19.2554C33.3327 19.4916 33.3135 19.4421 33.4238 19.1732C33.5059 18.973 33.5138 18.8852 33.5138 18.2226C33.5138 16.8906 33.3552 16.5711 32.427 16.0221C32.1478 15.8601 31.8609 15.7114 31.5675 15.5766C31.4226 15.5185 31.282 15.45 31.1468 15.3719C31.1727 15.346 32.0772 15.6092 32.4405 15.7499C32.9828 15.958 33.0717 15.985 33.138 15.9591C33.1819 15.9422 33.2033 15.814 33.2247 15.4371V15.4371ZM22.4168 17.7152C21.7654 16.8186 21.3627 15.4427 21.4493 14.4145L21.4763 14.0961L21.6248 14.1231C21.9038 14.1737 22.3842 14.3526 22.6092 14.4899C23.2257 14.8645 23.4934 15.3584 23.7645 16.6251C23.8444 16.9964 23.949 17.416 23.9974 17.5589C24.0739 17.7872 24.3664 18.3216 24.6049 18.6692C24.7759 18.919 24.6612 19.0371 24.2832 19.0034C23.7049 18.9505 22.9219 18.4105 22.4168 17.7152ZM32.4349 24.3921C29.3895 23.1659 28.3174 22.1016 28.3174 20.3061C28.3174 20.0417 28.3264 19.8257 28.3365 19.8257C28.3478 19.8257 28.4659 19.9124 28.5987 20.0192C29.2163 20.5142 29.9082 20.7257 31.8218 21.0047C32.9479 21.1701 33.5824 21.3029 34.1674 21.4964C36.0259 22.1129 37.1757 23.3639 37.4502 25.0671C37.5289 25.5621 37.4828 26.4902 37.3534 26.9796C37.2522 27.3666 36.9405 28.063 36.8584 28.09C36.8359 28.0967 36.8134 28.0101 36.8067 27.8897C36.7752 27.2507 36.4523 26.6275 35.9089 26.1606C35.2913 25.6307 34.4622 25.2077 32.4338 24.3921H32.4349ZM30.2974 24.9006C30.2614 24.6833 30.2122 24.4684 30.15 24.2571L30.0713 24.0254L30.2164 24.1874C30.4155 24.4124 30.5742 24.6981 30.7069 25.0806C30.8093 25.372 30.8205 25.4586 30.8194 25.9322C30.8194 26.398 30.807 26.4947 30.7125 26.758C30.5812 27.144 30.3611 27.4938 30.0702 27.7795C29.5133 28.3465 28.7989 28.6592 27.7662 28.7897C27.5862 28.8122 27.0642 28.8505 26.604 28.8741C25.4453 28.9349 24.6837 29.0586 23.9985 29.2994C23.9368 29.327 23.8704 29.3431 23.8028 29.3466C23.7758 29.3185 24.2415 29.0406 24.6274 28.855C25.1708 28.5929 25.7108 28.45 26.9224 28.2486C27.5209 28.1485 28.1397 28.0281 28.296 27.9797C29.7788 27.5252 30.5404 26.353 30.2963 24.9006H30.2974Z" fill="white"/>
<path d="M31.6925 27.38C31.2875 26.5104 31.1952 25.67 31.4168 24.887C31.4405 24.8037 31.4787 24.7351 31.5012 24.7351C31.5774 24.7627 31.649 24.8013 31.7138 24.8499C31.9006 24.9759 32.2741 25.1874 33.2697 25.7296C34.5128 26.408 35.2216 26.9334 35.7042 27.5319C36.1261 28.0572 36.3871 28.6557 36.5131 29.3847C36.584 29.7976 36.5423 30.791 36.4366 31.2072C36.1025 32.519 35.3251 33.5495 34.2181 34.1502C34.1136 34.2107 34.0054 34.2644 33.8941 34.3111C33.8783 34.3111 33.9368 34.1615 34.0257 33.977C34.397 33.1985 34.4408 32.4402 34.1585 31.5965C33.9863 31.0801 33.6342 30.449 32.9243 29.3847C32.0986 28.1472 31.8961 27.8165 31.6925 27.38V27.38ZM20.2546 32.0724C21.3852 31.1184 22.7903 30.4411 24.0717 30.233C24.623 30.143 25.5432 30.179 26.054 30.3095C26.873 30.5187 27.6065 30.989 27.9878 31.5481C28.3591 32.0949 28.52 32.5719 28.6853 33.6316C28.7528 34.0501 28.8237 34.4697 28.8451 34.5654C28.9688 35.1144 29.213 35.5542 29.5145 35.7747C29.9926 36.1246 30.8172 36.146 31.6272 35.831C31.7118 35.7921 31.8011 35.7642 31.8927 35.7477C31.922 35.777 31.5147 36.0504 31.2267 36.1944C30.8869 36.3762 30.5062 36.4684 30.1208 36.4621C29.3783 36.4621 28.7618 36.0852 28.2477 35.3146C28.1465 35.1627 27.9192 34.7094 27.7415 34.3055C27.1992 33.068 26.9315 32.69 26.3015 32.2771C25.7513 31.9171 25.0437 31.853 24.5116 32.114C23.8118 32.4571 23.6172 33.3515 24.1178 33.9174C24.317 34.1424 24.6882 34.337 24.992 34.3741C25.1245 34.3917 25.2592 34.3806 25.387 34.3416C25.5149 34.3026 25.6329 34.2366 25.733 34.1481C25.8332 34.0595 25.9132 33.9506 25.9675 33.8285C26.0219 33.7064 26.0495 33.574 26.0483 33.4404C26.0483 33.0669 25.9043 32.8554 25.5443 32.6922C25.0527 32.4706 24.524 32.7294 24.5262 33.1917C24.5273 33.3886 24.6128 33.5124 24.8108 33.6024C24.938 33.6586 24.9402 33.6642 24.8367 33.6429C24.3856 33.5484 24.2798 33.005 24.6432 32.6439C25.0786 32.2096 25.9797 32.4009 26.2891 32.9926C26.4196 33.2412 26.4342 33.7374 26.3206 34.0366C26.0675 34.706 25.3272 35.057 24.5768 34.8657C24.0661 34.7352 23.858 34.5946 23.2426 33.9601C22.1727 32.8576 21.7576 32.6439 20.2141 32.4031L19.9182 32.357L20.2557 32.0724H20.2546Z" fill="white"/>
<path fill-rule="evenodd" clip-rule="evenodd" d="M14.9705 10.7682L15.0785 10.8999C19.25 16.0074 21.4055 18.6579 21.5427 18.8469C21.7677 19.1596 21.6833 19.4397 21.2963 19.6602C21.0815 19.7829 20.6382 19.9066 20.4177 19.9066C20.1668 19.9066 19.8845 19.7862 19.6786 19.5916C19.5335 19.4532 18.9473 18.578 17.594 16.4776C16.9602 15.4849 16.3182 14.4975 15.668 13.5155C15.6128 13.4637 15.614 13.4649 17.4882 16.8185C18.665 18.9245 19.0632 19.6681 19.0632 19.7682C19.0632 19.9707 19.007 20.0765 18.7572 20.3555C18.341 20.8201 18.1553 21.3421 18.0203 22.4221C17.8696 23.6337 17.4466 24.4887 16.2721 25.9524C15.5858 26.8096 15.4733 26.9671 15.299 27.3125C15.0807 27.7467 15.0211 27.9909 14.9963 28.5399C14.9705 29.1204 15.0211 29.4961 15.1988 30.0507C15.3541 30.5367 15.5161 30.8585 15.9301 31.4997C16.2878 32.0544 16.4937 32.4661 16.4937 32.627C16.4937 32.7552 16.5185 32.7552 17.0731 32.6304C18.3995 32.3311 19.4761 31.8035 20.0825 31.1577C20.4571 30.7584 20.5448 30.5379 20.5482 29.99C20.5493 29.6322 20.537 29.5569 20.4402 29.351C20.2827 29.0157 19.9958 28.7367 19.3636 28.3047C18.5345 27.7377 18.1812 27.281 18.0833 26.6544C18.0023 26.1402 18.0957 25.7769 18.5547 24.8161C19.0283 23.8216 19.1465 23.3986 19.2263 22.3962C19.277 21.7482 19.3478 21.4929 19.5346 21.2881C19.7281 21.0744 19.9036 21.0012 20.384 20.936C21.167 20.8291 21.6653 20.6266 22.0748 20.2497C22.4303 19.9212 22.5788 19.6051 22.6013 19.1304L22.6193 18.7704L22.4202 18.5386C22.1345 18.2056 19.7708 15.5979 15.3282 10.7131L15.209 10.5837L14.9705 10.7694V10.7682ZM16.8987 29.198C16.9772 29.059 17.0006 28.8956 16.9644 28.7402C16.9281 28.5848 16.8348 28.4486 16.703 28.3587C16.4465 28.1877 16.0471 28.2687 16.0471 28.4915C16.0471 28.559 16.0842 28.6085 16.1686 28.6524C16.3115 28.7255 16.3216 28.8087 16.2102 28.9764C16.0966 29.1474 16.1056 29.2981 16.2361 29.4005C16.4453 29.5647 16.7423 29.4736 16.8998 29.198H16.8987ZM23.1132 21.125C22.7453 21.2375 22.3887 21.6279 22.2773 22.0362C22.2098 22.2849 22.2481 22.7225 22.3493 22.8575C22.5125 23.0757 22.6711 23.1331 23.0986 23.1297C23.9356 23.1241 24.6623 22.7652 24.7478 22.3164C24.8176 21.9485 24.497 21.4389 24.0571 21.2139C23.8298 21.0991 23.3472 21.053 23.1132 21.125V21.125ZM24.092 21.89C24.2213 21.7066 24.164 21.5075 23.9457 21.3747C23.5272 21.1194 22.895 21.3297 22.895 21.7257C22.895 21.9215 23.2246 22.1364 23.5261 22.1364C23.7286 22.1364 24.0031 22.016 24.092 21.89Z" fill="white"/>
</g>
</g>
<defs>
<filter id="filter0_f_9_715" x="0" y="0" width="52" height="52" filterUnits="userSpaceOnUse" color-interpolation-filters="sRGB">
<feFlood flood-opacity="0" result="BackgroundImageFix"/>
<feBlend mode="normal" in="SourceGraphic" in2="BackgroundImageFix" result="shape"/>
<feGaussianBlur stdDeviation="1" result="effect1_foregroundBlur_9_715"/>
</filter>
<clipPath id="clip0_9_715">
<rect width="36" height="36" fill="white" transform="translate(8 7)"/>
</clipPath>
</defs>
</svg>
