<svg width="158" height="40" viewBox="0 0 158 40" fill="none" xmlns="http://www.w3.org/2000/svg">
<path d="M13.244 3.81375C12.7524 3.73719 12.7316 3.7282 12.963 3.6925C13.4064 3.62406 14.4534 3.71735 15.1749 3.88955C16.8593 4.29147 18.3919 5.32104 20.0278 7.14959L20.4625 7.63536L21.0842 7.53502C23.7036 7.11245 26.3683 7.4483 28.5972 8.48186C29.2103 8.76621 30.177 9.33223 30.2978 9.47768C30.3363 9.52406 30.4069 9.82245 30.4548 10.1409C30.6203 11.2424 30.5374 12.0868 30.2018 12.7175C30.0192 13.0607 30.0089 13.1695 30.1317 13.4632C30.2298 13.6975 30.5031 13.871 30.7737 13.8706C31.3276 13.8699 31.9237 12.9711 32.1999 11.7205L32.3096 11.2237L32.527 11.4709C33.7193 12.8269 34.6557 14.6761 34.8167 15.9924L34.8585 16.3357L34.658 16.0236C34.3131 15.4868 33.9667 15.1213 33.5228 14.8265C32.7229 14.2952 31.8772 14.1144 29.6371 13.9959C27.614 13.8889 26.469 13.7154 25.3337 13.3437C23.402 12.7115 22.4283 11.8695 20.1337 8.8474C19.1145 7.50508 18.4846 6.7624 17.8579 6.16431C16.434 4.80533 15.035 4.09261 13.244 3.81375Z" fill="#ADAD9B"/>
<path d="M30.7541 6.81105C30.8049 5.91156 30.9265 5.31828 31.1708 4.77647C31.2676 4.562 31.3582 4.38647 31.3721 4.38647C31.3861 4.38647 31.344 4.54479 31.2786 4.73822C31.1011 5.26405 31.0719 5.98326 31.1942 6.82004C31.3495 7.88174 31.4379 8.03494 32.5557 9.18182C33.0801 9.71977 33.69 10.3982 33.911 10.6895L34.313 11.2191L33.911 10.8406C33.4194 10.3778 32.2888 9.47503 32.0391 9.346C31.8716 9.25945 31.8467 9.26094 31.7435 9.36415C31.6483 9.45926 31.6282 9.60214 31.615 10.2777C31.5945 11.3305 31.4515 12.0063 31.1064 12.682C30.9198 13.0475 30.8905 12.9695 31.0592 12.557C31.1853 12.249 31.1981 12.1136 31.1972 11.0943C31.1953 9.04648 30.9532 8.55416 29.5327 7.71078C29.173 7.49712 28.5802 7.18899 28.2154 7.02601C27.8506 6.86302 27.5608 6.72106 27.5714 6.71046C27.6116 6.67027 28.9967 7.07612 29.5542 7.29138C30.3835 7.61162 30.5204 7.65312 30.6212 7.61449C30.6886 7.58859 30.7213 7.39122 30.7541 6.81105Z" fill="#ADAD9B"/>
<path d="M14.1991 10.3143C13.201 8.93485 12.5834 6.81985 12.7171 5.23879L12.7584 4.74951L12.9856 4.79114C13.4123 4.86926 14.1479 5.14413 14.4924 5.35416C15.4377 5.93048 15.8469 6.68926 16.2633 8.63766C16.3853 9.20835 16.5453 9.85418 16.6189 10.0728C16.7374 10.4247 17.1854 11.2468 17.5495 11.7807C17.8117 12.1652 17.6374 12.3474 17.0577 12.2949C16.1722 12.2146 14.9728 11.3836 14.1991 10.3143Z" fill="#ADAD9B"/>
<path d="M29.5435 20.5809C24.8789 18.6955 23.236 17.059 23.236 14.2979C23.236 13.8915 23.25 13.5591 23.2669 13.5591C23.2839 13.5591 23.4644 13.6932 23.668 13.8571C24.6139 14.6187 25.673 14.9439 28.6053 15.3734C30.3308 15.6261 31.3019 15.8302 32.1976 16.1284C35.0446 17.0762 36.8061 18.9998 37.2261 21.6197C37.3482 22.3809 37.2767 23.8085 37.0787 24.561C36.9225 25.1553 36.4458 26.2265 36.3193 26.2675C36.2843 26.279 36.2499 26.144 36.2409 25.9605C36.1929 24.9768 35.6976 24.019 34.8659 23.3016C33.9203 22.4858 32.6498 21.8364 29.5435 20.5809Z" fill="#ADAD9B"/>
<path d="M26.2687 21.3639C26.2103 21.0149 26.109 20.569 26.0435 20.3731L25.9244 20.0171L26.1456 20.2663C26.4515 20.6109 26.6933 21.052 26.8982 21.6396C27.0544 22.088 27.0721 22.2212 27.0709 22.9498C27.0697 23.6652 27.0502 23.8152 26.9058 24.2188C26.6781 24.8552 26.3954 25.3065 25.9213 25.7908C25.0693 26.6614 23.9738 27.1433 22.3929 27.3433C22.1181 27.378 21.3172 27.4365 20.6131 27.4732C18.8386 27.5659 17.6707 27.7573 16.6214 28.1272C16.4705 28.1804 16.3359 28.2128 16.3221 28.1991C16.2797 28.1565 16.9942 27.729 17.5842 27.4437C18.4164 27.0413 19.2447 26.8217 21.1008 26.5114C22.0175 26.3581 22.9643 26.1721 23.2048 26.0982C25.4752 25.3994 26.6423 23.5961 26.2687 21.3639Z" fill="#ADAD9B"/>
<path d="M28.407 25.1761C27.7873 23.8388 27.645 22.5475 27.9845 21.3433C28.0209 21.2147 28.0792 21.1094 28.1144 21.1094C28.1496 21.1094 28.2957 21.1887 28.4394 21.2856C28.7249 21.4786 29.2977 21.8037 30.8237 22.6389C32.7279 23.681 33.8136 24.488 34.5518 25.4101C35.1985 26.2176 35.5986 27.1371 35.7912 28.2585C35.9003 28.8938 35.8363 30.4222 35.6739 31.0619C35.162 33.0788 33.9721 34.663 32.2749 35.5875C32.0263 35.7229 31.803 35.834 31.7788 35.8346C31.7547 35.8351 31.8453 35.6039 31.9803 35.3207C32.5512 34.1226 32.6162 32.9572 32.1845 31.6601C31.9203 30.8659 31.3814 29.8968 30.2934 28.2589C29.0284 26.3546 28.7183 25.8477 28.407 25.1761Z" fill="#ADAD9B"/>
<path d="M10.8865 32.3921C12.6175 30.9248 14.7712 29.8826 16.7332 29.5626C17.5786 29.4248 18.9871 29.4794 19.77 29.6807C21.025 30.0031 22.1478 30.7252 22.7315 31.5856C23.3022 32.4265 23.5469 33.1593 23.8018 34.7895C23.9023 35.4327 24.0117 36.0785 24.0447 36.2248C24.2362 37.0697 24.6087 37.7451 25.0702 38.0842C25.8034 38.6229 27.0657 38.6565 28.3076 38.1701C28.5183 38.0876 28.7012 38.0305 28.7142 38.0434C28.7591 38.0884 28.1338 38.5086 27.6926 38.7298C27.0991 39.0273 26.6272 39.1424 25.9999 39.1424C24.8625 39.1424 23.9183 38.5617 23.1303 37.3773C22.9753 37.1443 22.6268 36.4461 22.356 35.826C21.5241 33.9213 21.1133 33.3411 20.1474 32.706C19.3068 32.1535 18.2227 32.0546 17.4071 32.456C16.3359 32.9832 16.0371 34.3575 16.8043 35.2284C17.1093 35.5746 17.6778 35.8731 18.1428 35.9311C19.0129 36.0397 19.7604 35.3754 19.7604 34.4938C19.7604 33.9213 19.5412 33.5945 18.9894 33.3446C18.2358 33.0033 17.4256 33.4023 17.4296 34.1129C17.4313 34.416 17.5626 34.6063 17.8654 34.7438C18.0595 34.8319 18.0639 34.8389 17.9056 34.806C17.2141 34.6621 17.0522 33.8252 17.6082 33.2695C18.2757 32.6026 19.6561 32.897 20.1301 33.8074C20.3291 34.1897 20.3523 34.9513 20.1787 35.4111C19.7901 36.4404 18.6571 36.9816 17.5078 36.6871C16.7253 36.4866 16.4067 36.2694 15.4633 35.2939C13.8239 33.5986 13.1875 33.2702 10.8241 32.8998L10.3712 32.8289L10.8865 32.3921Z" fill="#ADAD9B"/>
<path fill-rule="evenodd" clip-rule="evenodd" d="M3.19441 2.05133C8.66913 8.72164 12.4399 11.4737 12.8589 12.0551C13.2049 12.5352 13.0746 12.9668 12.4819 13.3051C12.1523 13.4932 11.4747 13.6837 11.1354 13.6837C10.7516 13.6837 10.6199 13.5351 10.6199 13.5351C10.3974 13.3233 10.2721 13.3603 9.12943 11.3243C7.54307 8.85328 6.2155 6.80348 6.17928 6.76915C6.09554 6.68979 6.09698 6.69246 8.96767 11.8487C9.43149 12.9233 9.05993 13.3178 9.05993 13.4709C9.05993 13.7823 8.97531 13.9459 8.59269 14.3744C7.95481 15.0887 7.66967 15.8913 7.46385 17.5524C7.23308 19.4146 6.58422 20.73 4.78605 22.9811C3.73345 24.2989 3.56123 24.5405 3.29563 25.0717C2.96108 25.7405 2.86909 26.1152 2.83181 26.9598C2.7924 27.8527 2.86916 28.4296 3.14093 29.2834C3.37886 30.0309 3.62722 30.5246 4.26216 31.5117C4.81009 32.3636 5.12559 32.9967 5.12559 33.2444C5.12559 33.4415 5.16306 33.4417 6.01212 33.2493C8.04406 32.7886 9.69398 31.9786 10.6219 30.9858C11.1962 30.3713 11.331 30.032 11.3354 29.1899C11.3383 28.639 11.319 28.5238 11.1707 28.2069C10.9292 27.6911 10.4897 27.2624 9.521 26.5975C8.25172 25.7265 7.70957 25.0253 7.55983 24.061C7.43698 23.2696 7.5795 22.7113 8.28167 21.234C9.00847 19.7048 9.18857 19.0532 9.31041 17.5118C9.38911 16.516 9.49808 16.1233 9.7831 15.808C10.0804 15.4793 10.348 15.3679 11.0836 15.267C12.283 15.1026 13.0467 14.7911 13.6744 14.2104C14.219 13.7066 14.4468 13.2212 14.4818 12.4906L14.5084 11.9367L14.2041 11.5805C13.102 10.2906 2.45637 1.03735 2.38854 1.03735C2.37405 1.03735 2.73671 1.49368 3.19441 2.05133ZM5.74422 27.9701C5.99339 27.5273 5.86101 26.9577 5.44421 26.6796C5.05041 26.4167 4.43864 26.5405 4.43864 26.883C4.43864 26.9875 4.49622 27.0637 4.62599 27.1306C4.8445 27.2436 4.86037 27.3705 4.68844 27.6299C4.51433 27.8925 4.52838 28.1236 4.72809 28.2806C5.04997 28.5335 5.50559 28.3944 5.74422 27.9701Z" fill="#ADAD9B"/>
<path fill-rule="evenodd" clip-rule="evenodd" d="M15.2652 15.5577C14.7022 15.7313 14.1549 16.3303 13.9854 16.9585C13.8821 17.3416 13.9407 18.0138 14.0955 18.2214C14.3456 18.5567 14.5875 18.645 15.2424 18.6404C16.5246 18.6315 17.6393 18.0794 17.7689 17.3892C17.8751 16.8235 17.3855 16.0396 16.7112 15.6953C16.3633 15.5178 15.6232 15.4474 15.2652 15.5577ZM16.7641 16.7342C16.9619 16.4522 16.8754 16.1475 16.539 15.9413C15.8986 15.5487 14.9302 15.8736 14.9302 16.4809C14.9302 16.7832 15.4352 17.113 15.8982 17.113C16.2063 17.113 16.6279 16.9287 16.7641 16.7342Z" fill="#ADAD9B"/>
<path d="M143.615 37.5835V17.4587H146.491V19.741C147.284 18.4369 148.811 17.103 151.365 17.103C155.181 17.103 157.94 20.1559 157.94 24.7795C157.94 29.4031 155.181 32.456 151.365 32.456C148.752 32.456 147.255 31.0629 146.521 29.8774V37.5835H143.615ZM150.689 30.1145C153.537 30.1145 154.917 27.7137 154.917 24.7795C154.917 21.8453 153.537 19.4445 150.689 19.4445C147.842 19.4445 146.403 21.9046 146.403 24.7795C146.403 27.6544 147.842 30.1145 150.689 30.1145Z" fill="#ADAD9B"/>
<path d="M132.769 32.456C130.157 32.456 127.808 30.8554 127.808 28.1287C127.808 25.4613 129.658 24.246 132.799 23.6237L134.795 23.2087C136.351 22.8826 137.085 22.5566 137.085 21.3414C137.085 20.1263 136.087 19.2667 134.325 19.2667C132.417 19.2667 131.184 20.4522 131.067 22.4084L128.072 22.1416C128.278 18.9999 130.773 17.103 134.355 17.103C138.053 17.103 140.02 18.911 140.02 21.9935V32.1003H137.231V30.3813H137.202C136.527 31.5075 135.03 32.456 132.769 32.456ZM133.533 30.3516C135.588 30.3516 137.202 28.9883 137.202 26.5578V24.7795C134.149 25.2834 132.711 25.6982 131.83 26.2614C131.155 26.6764 130.773 27.2691 130.773 28.0694C130.773 29.4327 131.889 30.3516 133.533 30.3516Z" fill="#ADAD9B"/>
<path d="M109.127 32.1007L104.518 17.4592H107.601L110.771 28.5144H110.8L114.088 17.4592H116.994L120.312 28.4847H120.341L123.511 17.4592H126.535L121.926 32.1007H118.873L115.585 20.8084H115.556L112.209 32.1007H109.127Z" fill="#ADAD9B"/>
<path d="M97.405 32.456C93.7942 32.456 91.1521 30.7666 90.8292 27.2691L93.7062 26.9135C93.8529 29.2253 95.4675 30.2924 97.4637 30.2924C99.4306 30.2924 100.752 29.4031 100.752 27.9805C100.752 26.5578 99.4013 26.2614 97.5812 25.8465L95.4382 25.3427C93.0896 24.7795 91.475 23.6533 91.475 21.4007C91.475 18.911 93.9117 17.103 97.3463 17.103C100.664 17.103 102.924 18.7924 103.305 21.5193L100.399 21.9343C100.194 20.1856 98.9315 19.2667 97.2289 19.2667C95.4969 19.2667 94.3812 20.1263 94.3812 21.2525C94.3812 22.3194 95.0271 22.7048 96.8472 23.1198L98.9902 23.6237C102.043 24.3349 103.658 25.3427 103.658 27.6841C103.658 30.6184 100.957 32.456 97.405 32.456Z" fill="#ADAD9B"/>
<path d="M85.4174 32.1004V17.4588H88.3237V32.1004H85.4174ZM85.4174 15.1767V11.709H88.3237V15.1767H85.4174Z" fill="#ADAD9B"/>
<path d="M69.1696 32.1003V17.4587H72.0464V19.5335H72.0758C72.8978 18.259 74.5124 17.103 76.7142 17.103C79.9433 17.103 81.8514 19.0592 81.8514 22.6159V32.1003H78.9451V23.8903C78.9451 21.2525 78.3581 19.5631 75.9215 19.5631C73.4849 19.5631 72.0758 21.5489 72.0758 23.9199V32.1003H69.1696Z" fill="#ADAD9B"/>
<path d="M57.8678 32.4561C53.0534 32.4561 50.1177 29.6996 50.1177 24.6314V11.709H53.1709V24.4536C53.1709 27.7435 54.6974 29.8775 57.8678 29.8775C61.3024 29.8775 62.5647 27.7435 62.5647 24.4536V11.709H65.6178V24.6314C65.6178 29.6996 62.6821 32.4561 57.8678 32.4561Z" fill="#ADAD9B"/>
</svg>
