<svg width="52" height="52" viewBox="0 0 52 52" fill="none" xmlns="http://www.w3.org/2000/svg">
<g filter="url(#filter0_f_9_657)">
<rect x="2" y="2" width="48" height="48" fill="#2775CA" fill-opacity="0.2"/>
<rect x="2.5" y="2.5" width="47" height="47" stroke="#2775CA" stroke-opacity="0.6"/>
<g clip-path="url(#clip0_9_657)">
<path d="M26 44C29.5601 44 33.0402 42.9443 36.0003 40.9665C38.9604 38.9886 41.2675 36.1774 42.6298 32.8883C43.9922 29.5992 44.3487 25.98 43.6541 22.4884C42.9596 18.9967 41.2453 15.7894 38.7279 13.2721C36.2106 10.7547 33.0033 9.04041 29.5116 8.34587C26.02 7.65134 22.4008 8.0078 19.1117 9.37018C15.8226 10.7326 13.0114 13.0397 11.0335 15.9997C9.05568 18.9598 8 22.4399 8 26C7.99417 28.3654 8.45578 30.7087 9.3583 32.8952C10.2608 35.0817 11.5865 37.0683 13.2591 38.7409C14.9317 40.4135 16.9183 41.7392 19.1048 42.6417C21.2913 43.5442 23.6346 44.0058 26 44V44Z" fill="#2775CA"/>
<path d="M30.95 28.8506C30.95 26.2324 29.3758 25.3242 26.2258 24.9495C23.9742 24.65 23.5258 24.0495 23.5258 23.0006C23.5258 21.9517 24.2753 21.2742 25.7742 21.2742C27.1258 21.2742 27.8753 21.7242 28.25 22.85C28.2902 22.9585 28.3628 23.052 28.4579 23.1178C28.5531 23.1837 28.6661 23.2187 28.7818 23.2182H29.9813C30.0507 23.22 30.1198 23.2077 30.1844 23.1819C30.2489 23.1561 30.3076 23.1175 30.3567 23.0684C30.4058 23.0192 30.4445 22.9606 30.4702 22.8961C30.496 22.8315 30.5083 22.7624 30.5065 22.693V22.6193C30.3616 21.8064 29.9523 21.0642 29.3421 20.5079C28.732 19.9515 27.9551 19.6123 27.1324 19.543V17.743C27.1324 17.4435 26.9065 17.2193 26.5318 17.144H25.406C25.1065 17.144 24.8824 17.3682 24.8071 17.743V19.4742C22.5505 19.7819 21.1253 21.2742 21.1253 23.1495C21.1253 25.6253 22.6258 26.6006 25.7758 26.9753C27.8753 27.35 28.5576 27.7935 28.5576 28.9995C28.5576 30.2055 27.5087 31.0253 26.0835 31.0253C24.1329 31.0253 23.4653 30.2071 23.2329 29.0748C23.2115 28.9483 23.1463 28.8333 23.0489 28.7499C22.9514 28.6665 22.8277 28.6199 22.6995 28.6182H21.4182C21.3488 28.6167 21.2798 28.6292 21.2153 28.655C21.1509 28.6809 21.0924 28.7195 21.0433 28.7686C20.9942 28.8177 20.9555 28.8762 20.9297 28.9406C20.9039 29.0051 20.8913 29.0741 20.8929 29.1435V29.2188C21.194 31.094 22.3935 32.444 24.8693 32.8188V34.6188C24.8693 34.9182 25.0935 35.144 25.4682 35.2193H26.594C26.8935 35.2193 27.1193 34.9935 27.1929 34.6188V32.8188C29.4429 32.444 30.9435 30.8682 30.9435 28.844L30.95 28.8506Z" fill="white"/>
<path d="M22.1742 36.7248C20.0162 35.9332 18.1532 34.4982 16.8372 32.6137C15.5211 30.7292 14.8153 28.486 14.8153 26.1874C14.8153 23.8888 15.5211 21.6457 16.8372 19.7611C18.1532 17.8766 20.0162 16.4416 22.1742 15.65C22.3182 15.5878 22.4391 15.4821 22.5201 15.3477C22.6011 15.2133 22.638 15.057 22.6258 14.9006V13.85C22.6359 13.7122 22.5957 13.5755 22.5127 13.465C22.4296 13.3546 22.3094 13.278 22.1742 13.2495C22.0686 13.2385 21.9625 13.2651 21.8747 13.3248C19.1443 14.1926 16.7609 15.9068 15.0695 18.2193C13.378 20.5317 12.4663 23.3224 12.4663 26.1874C12.4663 29.0524 13.378 31.8431 15.0695 34.1556C16.7609 36.468 19.1443 38.1822 21.8747 39.05C21.9371 39.0863 22.0071 39.1072 22.0792 39.1111C22.1512 39.1151 22.2231 39.1019 22.289 39.0727C22.355 39.0435 22.413 38.999 22.4585 38.9431C22.5039 38.8871 22.5355 38.8211 22.5505 38.7506C22.6258 38.6753 22.6258 38.6 22.6258 38.4495V37.4006C22.6258 37.1748 22.4 36.8753 22.1742 36.7248ZM30.1253 13.3248C30.0628 13.2885 29.9926 13.2677 29.9205 13.2638C29.8484 13.26 29.7764 13.2733 29.7105 13.3027C29.6445 13.3321 29.5864 13.3767 29.5411 13.4329C29.4957 13.4891 29.4643 13.5552 29.4495 13.6259C29.3758 13.6995 29.3758 13.7748 29.3758 13.9253V14.9742C29.3885 15.1255 29.4356 15.2718 29.5136 15.402C29.5916 15.5322 29.6984 15.6428 29.8258 15.7253C31.9838 16.5168 33.8468 17.9519 35.1629 19.8364C36.4789 21.7209 37.1847 23.9641 37.1847 26.2627C37.1847 28.5613 36.4789 30.8044 35.1629 32.689C33.8468 34.5735 31.9838 36.0085 29.8258 36.8C29.682 36.8624 29.5613 36.9682 29.4806 37.1026C29.3999 37.237 29.3632 37.3932 29.3758 37.5495V38.6C29.3657 38.7376 29.4056 38.8742 29.4883 38.9846C29.5711 39.095 29.6909 39.1717 29.8258 39.2006C29.9314 39.2116 30.0375 39.1849 30.1253 39.1253C32.8546 38.2455 35.2346 36.5226 36.9229 34.2046C38.6111 31.8865 39.5207 29.0927 39.5207 26.225C39.5207 23.3574 38.6111 20.5636 36.9229 18.2455C35.2346 15.9275 32.8546 14.2046 30.1253 13.3248V13.3248Z" fill="white"/>
</g>
</g>
<defs>
<filter id="filter0_f_9_657" x="0" y="0" width="52" height="52" filterUnits="userSpaceOnUse" color-interpolation-filters="sRGB">
<feFlood flood-opacity="0" result="BackgroundImageFix"/>
<feBlend mode="normal" in="SourceGraphic" in2="BackgroundImageFix" result="shape"/>
<feGaussianBlur stdDeviation="1" result="effect1_foregroundBlur_9_657"/>
</filter>
<clipPath id="clip0_9_657">
<rect width="36" height="36" fill="white" transform="translate(8 8)"/>
</clipPath>
</defs>
</svg>
