<svg width="32" height="32" viewBox="0 0 32 32" fill="none" xmlns="http://www.w3.org/2000/svg">
<g clip-path="url(#clip0_9_872)">
<path d="M16 32C19.1645 32 22.2579 31.0616 24.8891 29.3035C27.5203 27.5454 29.5711 25.0466 30.7821 22.1229C31.9931 19.1993 32.3099 15.9823 31.6926 12.8786C31.0752 9.77487 29.5514 6.92394 27.3137 4.6863C25.0761 2.44866 22.2251 0.924806 19.1214 0.307443C16.0178 -0.309921 12.8007 0.00693248 9.87707 1.21793C6.95345 2.42894 4.45459 4.4797 2.69649 7.11088C0.938387 9.74207 2.66427e-06 12.8355 2.66427e-06 16C-0.00517737 18.1026 0.405139 20.1855 1.20738 22.1291C2.00962 24.0726 3.18797 25.8385 4.67474 27.3253C6.16151 28.812 7.9274 29.9904 9.87095 30.7926C11.8145 31.5949 13.8974 32.0052 16 32V32Z" fill="#2775CA"/>
<path d="M20.4 18.5337C20.4 16.2065 19.0007 15.3992 16.2007 15.0661C14.1993 14.7999 13.8007 14.2661 13.8007 13.3337C13.8007 12.4014 14.4669 11.7992 15.7993 11.7992C17.0007 11.7992 17.6669 12.1992 18 13.1999C18.0358 13.2963 18.1003 13.3794 18.1849 13.438C18.2694 13.4965 18.3699 13.5277 18.4727 13.5272H19.5389C19.6007 13.5288 19.6621 13.5178 19.7195 13.4949C19.7768 13.472 19.8289 13.4377 19.8726 13.394C19.9163 13.3503 19.9506 13.2982 19.9735 13.2408C19.9964 13.1835 20.0074 13.122 20.0058 13.0603V12.9948C19.877 12.2723 19.5132 11.6125 18.9708 11.118C18.4284 10.6235 17.7379 10.322 17.0065 10.2603V8.66029C17.0065 8.39411 16.8058 8.19484 16.4727 8.12793H15.472C15.2058 8.12793 15.0065 8.3272 14.9396 8.66029V10.1992C12.9338 10.4727 11.6669 11.7992 11.6669 13.4661C11.6669 15.6668 13.0007 16.5337 15.8007 16.8668C17.6669 17.1999 18.2735 17.5941 18.2735 18.6661C18.2735 19.7381 17.3411 20.4668 16.0742 20.4668C14.3404 20.4668 13.7469 19.7396 13.5404 18.733C13.5213 18.6206 13.4634 18.5184 13.3768 18.4442C13.2901 18.3701 13.1802 18.3287 13.0662 18.3272H11.9273C11.8656 18.3258 11.8042 18.3369 11.747 18.3599C11.6897 18.3829 11.6377 18.4172 11.594 18.4609C11.5504 18.5045 11.516 18.5565 11.4931 18.6138C11.4701 18.6711 11.459 18.7324 11.4604 18.7941V18.861C11.728 20.5279 12.7942 21.7279 14.9949 22.061V23.661C14.9949 23.9272 15.1942 24.1279 15.5273 24.1948H16.528C16.7942 24.1948 16.9949 23.9941 17.0604 23.661V22.061C19.0604 21.7279 20.3942 20.3272 20.3942 18.5279L20.4 18.5337Z" fill="white"/>
<path d="M12.5993 25.5331C10.681 24.8295 9.02509 23.554 7.85525 21.8788C6.6854 20.2037 6.05808 18.2098 6.05808 16.1666C6.05808 14.1234 6.6854 12.1295 7.85525 10.4543C9.02509 8.77919 10.681 7.50362 12.5993 6.80004C12.7273 6.74468 12.8348 6.65071 12.9067 6.53127C12.9787 6.41183 13.0116 6.27289 13.0007 6.13386V5.20004C13.0097 5.07755 12.974 4.95596 12.9002 4.8578C12.8263 4.75965 12.7194 4.69158 12.5993 4.66622C12.5054 4.65643 12.4111 4.68013 12.3331 4.73313C9.90605 5.50455 7.78745 7.02828 6.28395 9.08378C4.78045 11.1393 3.97005 13.6199 3.97005 16.1666C3.97005 18.7133 4.78045 21.1939 6.28395 23.2494C7.78745 25.3049 9.90605 26.8286 12.3331 27.6C12.3885 27.6322 12.4508 27.6509 12.5148 27.6543C12.5788 27.6578 12.6427 27.6461 12.7013 27.6202C12.76 27.5942 12.8116 27.5547 12.852 27.5049C12.8924 27.4552 12.9204 27.3965 12.9338 27.3339C13.0007 27.2669 13.0007 27.2 13.0007 27.0662V26.1339C13.0007 25.9331 12.8 25.6669 12.5993 25.5331ZM19.6669 4.73313C19.6114 4.70093 19.549 4.68236 19.4849 4.67895C19.4208 4.67554 19.3568 4.68738 19.2982 4.7135C19.2395 4.73962 19.1879 4.77928 19.1476 4.82922C19.1073 4.87916 19.0794 4.93795 19.0662 5.00077C19.0007 5.06622 19.0007 5.13313 19.0007 5.26695V6.19931C19.012 6.33376 19.0539 6.46385 19.1232 6.57958C19.1925 6.69532 19.2875 6.79362 19.4007 6.86695C21.319 7.57053 22.9749 8.8461 24.1448 10.5212C25.3146 12.1964 25.9419 14.1903 25.9419 16.2335C25.9419 18.2767 25.3146 20.2706 24.1448 21.9457C22.9749 23.6209 21.319 24.8965 19.4007 25.6C19.2729 25.6554 19.1656 25.7495 19.0938 25.8689C19.0221 25.9884 18.9895 26.1273 19.0007 26.2662V27.2C18.9917 27.3223 19.0272 27.4437 19.1007 27.5419C19.1743 27.64 19.2808 27.7082 19.4007 27.7339C19.4946 27.7436 19.5888 27.7199 19.6669 27.6669C22.093 26.8849 24.2085 25.3534 25.7092 23.2929C27.2099 21.2325 28.0184 18.7491 28.0184 16.2C28.0184 13.651 27.2099 11.1676 25.7092 9.10714C24.2085 7.04665 22.093 5.51522 19.6669 4.73313V4.73313Z" fill="white"/>
</g>
<defs>
<clipPath id="clip0_9_872">
<rect width="32" height="32" fill="white"/>
</clipPath>
</defs>
</svg>
