<svg width="32" height="32" viewBox="0 0 32 32" fill="none" xmlns="http://www.w3.org/2000/svg">
<g clip-path="url(#clip0_9_940)">
<path d="M16 32C24.8366 32 32 24.8366 32 16C32 7.16344 24.8366 0 16 0C7.16344 0 0 7.16344 0 16C0 24.8366 7.16344 32 16 32Z" fill="#26A17B"/>
<path fill-rule="evenodd" clip-rule="evenodd" d="M17.922 17.3833V17.3813C17.812 17.3893 17.245 17.4233 15.98 17.4233C14.97 17.4233 14.259 17.3933 14.009 17.3813V17.3843C10.121 17.2133 7.21905 16.5363 7.21905 15.7263C7.21905 14.9173 10.121 14.2403 14.009 14.0663V16.7103C14.263 16.7283 14.991 16.7713 15.997 16.7713C17.204 16.7713 17.809 16.7213 17.922 16.7113V14.0683C21.802 14.2413 24.697 14.9183 24.697 15.7263C24.697 16.5363 21.802 17.2113 17.922 17.3833ZM17.922 13.7933V11.4273H23.336V7.81934H8.59505V11.4273H14.009V13.7923C9.60905 13.9943 6.30005 14.8663 6.30005 15.9103C6.30005 16.9543 9.60905 17.8253 14.009 18.0283V25.6103H17.922V18.0263C22.3151 17.8243 25.616 16.9533 25.616 15.9103C25.616 14.8673 22.3151 13.9963 17.922 13.7933Z" fill="white"/>
</g>
<defs>
<clipPath id="clip0_9_940">
<rect width="32" height="32" fill="white"/>
</clipPath>
</defs>
</svg>
